{"asset":{"version":"2.0","generator":"Unity 6000.3.10f1 glTFast 6.19.0"},"nodes":[{"name":"cube","mesh":0,"translation":[0,-0.1875,0.015625],"rotation":[-0.152123392,0,0,0.988361537]},{"name":"cube_0","mesh":1,"translation":[0,-0.125,0.03125],"rotation":[-0.152123392,0,0,0.988361537]},{"name":"jaw","children":[0,1],"translation":[0,-0.140625,0]},{"name":"cube","mesh":2,"translation":[0,-0.1375,-0.09375],"rotation":[0.0218148865,0,0,0.999762058]},{"name":"cube_0","mesh":3,"translation":[0,-0.15625,-0.0625],"rotation":[0.0218148865,0,0,0.999762058]},{"name":"cube_1","mesh":4,"translation":[0,-0.234375,-0.0625],"rotation":[0.0218148865,0,0,0.999762058]},{"name":"head","children":[2,3,4,5],"translation":[0,0.0625,-0.25]},{"name":"cube","mesh":5,"translation":[0,-0.140625,0]},{"name":"tail_fin","children":[7],"translation":[0,0,0.4375]},{"name":"cube","mesh":6,"translation":[0,-0.140625,0.4375]},{"name":"cube_0","mesh":7,"translation":[0,-0.140625,0.375]},{"name":"tail end","children":[8,9,10],"translation":[0,0,0.5]},{"name":"cube","mesh":8,"translation":[0,-0.125,0.4375]},{"name":"tail","children":[11,12],"translation":[0,0,0.5]},{"name":"cube","mesh":9,"translation":[0.078125,-0.046875,0.328125],"rotation":[-0.265133977,0.07361333,-0.134179488,0.9519879]},{"name":"left_back_fin","children":[14],"translation":[-0.046875,-0.0625,0.171875]},{"name":"cube","mesh":10,"translation":[-0.0625,-0.046875,0.328125],"rotation":[-0.265133977,-0.07361333,0.134179488,0.9519879]},{"name":"right_back_fin","children":[16],"translation":[0.03125,-0.0625,0.171875]},{"name":"cube","mesh":11,"translation":[0,-0.109375,0.4375]},{"name":"back","children":[13,15,17,18],"translation":[0,0,0.25]},{"name":"cube","mesh":12,"translation":[-0.015625,-0.046875,0.046875],"rotation":[0.08548107,-0.194347948,0.0170032419,0.9770531]},{"name":"left_front_fin","children":[20],"translation":[-0.0625,0.015625,-0.1875]},{"name":"cube","mesh":13,"translation":[0.015625,-0.046875,0.046875],"rotation":[0.08548107,0.194347948,-0.0170032419,0.9770531]},{"name":"right_front_fin","children":[22],"translation":[0.0625,0.015625,-0.1875]},{"name":"cube","mesh":14,"translation":[0,-0.09375,0.1875]},{"name":"cube_0","mesh":15,"translation":[0,0.09375,0.25],"rotation":[0.0871557444,0,0,0.9961947]},{"name":"torso","children":[6,19,21,23,24,25],"translation":[0,0.03125,-0.1875]},{"name":"viper fish","children":[26],"translation":[0,0.5625,0]},{"name":"cube","mesh":16,"translation":[0,0.5,0]},{"name":"Node-29","children":[27,28]},{"name":"model","children":[29]}],"buffers":[{"uri":"viper.bin","byteLength":14280}],"bufferViews":[{"buffer":0,"byteLength":72,"target":34963},{"buffer":0,"byteLength":72,"byteOffset":72,"target":34963},{"buffer":0,"byteLength":72,"byteOffset":144,"target":34963},{"buffer":0,"byteLength":72,"byteOffset":216,"target":34963},{"buffer":0,"byteLength":72,"byteOffset":288,"target":34963},{"buffer":0,"byteLength":72,"byteOffset":360,"target":34963},{"buffer":0,"byteLength":72,"byteOffset":432,"target":34963},{"buffer":0,"byteLength":72,"byteOffset":504,"target":34963},{"buffer":0,"byteLength":72,"byteOffset":576,"target":34963},{"buffer":0,"byteLength":72,"byteOffset":648,"target":34963},{"buffer":0,"byteLength":72,"byteOffset":720,"target":34963},{"buffer":0,"byteLength":72,"byteOffset":792,"target":34963},{"buffer":0,"byteLength":72,"byteOffset":864,"target":34963},{"buffer":0,"byteLength":72,"byteOffset":936,"target":34963},{"buffer":0,"byteLength":72,"byteOffset":1008,"target":34963},{"buffer":0,"byteLength":72,"byteOffset":1080,"target":34963},{"buffer":0,"byteLength":72,"byteOffset":1152,"target":34963},{"buffer":0,"byteLength":576,"byteOffset":1224,"byteStride":24,"target":34962},{"buffer":0,"byteLength":192,"byteOffset":1800,"byteStride":8,"target":34962},{"buffer":0,"byteLength":576,"byteOffset":1992,"byteStride":24,"target":34962},{"buffer":0,"byteLength":192,"byteOffset":2568,"byteStride":8,"target":34962},{"buffer":0,"byteLength":576,"byteOffset":2760,"byteStride":24,"target":34962},{"buffer":0,"byteLength":192,"byteOffset":3336,"byteStride":8,"target":34962},{"buffer":0,"byteLength":576,"byteOffset":3528,"byteStride":24,"target":34962},{"buffer":0,"byteLength":192,"byteOffset":4104,"byteStride":8,"target":34962},{"buffer":0,"byteLength":576,"byteOffset":4296,"byteStride":24,"target":34962},{"buffer":0,"byteLength":192,"byteOffset":4872,"byteStride":8,"target":34962},{"buffer":0,"byteLength":576,"byteOffset":5064,"byteStride":24,"target":34962},{"buffer":0,"byteLength":192,"byteOffset":5640,"byteStride":8,"target":34962},{"buffer":0,"byteLength":576,"byteOffset":5832,"byteStride":24,"target":34962},{"buffer":0,"byteLength":192,"byteOffset":6408,"byteStride":8,"target":34962},{"buffer":0,"byteLength":576,"byteOffset":6600,"byteStride":24,"target":34962},{"buffer":0,"byteLength":192,"byteOffset":7176,"byteStride":8,"target":34962},{"buffer":0,"byteLength":576,"byteOffset":7368,"byteStride":24,"target":34962},{"buffer":0,"byteLength":192,"byteOffset":7944,"byteStride":8,"target":34962},{"buffer":0,"byteLength":576,"byteOffset":8136,"byteStride":24,"target":34962},{"buffer":0,"byteLength":192,"byteOffset":8712,"byteStride":8,"target":34962},{"buffer":0,"byteLength":576,"byteOffset":8904,"byteStride":24,"target":34962},{"buffer":0,"byteLength":192,"byteOffset":9480,"byteStride":8,"target":34962},{"buffer":0,"byteLength":576,"byteOffset":9672,"byteStride":24,"target":34962},{"buffer":0,"byteLength":192,"byteOffset":10248,"byteStride":8,"target":34962},{"buffer":0,"byteLength":576,"byteOffset":10440,"byteStride":24,"target":34962},{"buffer":0,"byteLength":192,"byteOffset":11016,"byteStride":8,"target":34962},{"buffer":0,"byteLength":576,"byteOffset":11208,"byteStride":24,"target":34962},{"buffer":0,"byteLength":192,"byteOffset":11784,"byteStride":8,"target":34962},{"buffer":0,"byteLength":576,"byteOffset":11976,"byteStride":24,"target":34962},{"buffer":0,"byteLength":192,"byteOffset":12552,"byteStride":8,"target":34962},{"buffer":0,"byteLength":576,"byteOffset":12744,"byteStride":24,"target":34962},{"buffer":0,"byteLength":192,"byteOffset":13320,"byteStride":8,"target":34962},{"buffer":0,"byteLength":576,"byteOffset":13512,"byteStride":24,"target":34962},{"buffer":0,"byteLength":192,"byteOffset":14088,"byteStride":8,"target":34962}],"accessors":[{"bufferView":25,"componentType":5126,"count":24,"type":"VEC3","max":[0.0625,0.21875,0.0625],"min":[-0.0625,0.15625,-0.125]},{"bufferView":25,"componentType":5126,"count":24,"type":"VEC3","byteOffset":12},{"bufferView":26,"componentType":5126,"count":24,"type":"VEC2"},{"bufferView":1,"componentType":5123,"count":36,"type":"SCALAR"},{"bufferView":17,"componentType":5126,"count":24,"type":"VEC3","max":[0.0625625,0.3438125,0.0625624955],"min":[-0.0625625,0.1561875,-0.1563125]},{"bufferView":17,"componentType":5126,"count":24,"type":"VEC3","byteOffset":12},{"bufferView":18,"componentType":5126,"count":24,"type":"VEC2"},{"bufferView":2,"componentType":5123,"count":36,"type":"SCALAR"},{"bufferView":27,"componentType":5126,"count":24,"type":"VEC3","max":[0.078125,0.1875,0],"min":[-0.078125,0.125,-0.0625]},{"bufferView":27,"componentType":5126,"count":24,"type":"VEC3","byteOffset":12},{"bufferView":28,"componentType":5126,"count":24,"type":"VEC2"},{"bufferView":3,"componentType":5123,"count":36,"type":"SCALAR"},{"bufferView":19,"componentType":5126,"count":24,"type":"VEC3","max":[0.0625,0.21875,0.0625],"min":[-0.0625,0.125,-0.125]},{"bufferView":19,"componentType":5126,"count":24,"type":"VEC3","byteOffset":12},{"bufferView":20,"componentType":5126,"count":24,"type":"VEC2"},{"bufferView":0,"componentType":5123,"count":36,"type":"SCALAR"},{"bufferView":29,"componentType":5126,"count":24,"type":"VEC3","max":[0.061875,0.218125,0.061875],"min":[-0.061875,0.125625,-0.124375]},{"bufferView":29,"componentType":5126,"count":24,"type":"VEC3","byteOffset":12},{"bufferView":30,"componentType":5126,"count":24,"type":"VEC2"},{"bufferView":4,"componentType":5123,"count":36,"type":"SCALAR"},{"bufferView":31,"componentType":5126,"count":24,"type":"VEC3","max":[6.25E-05,0.375,0.25],"min":[0,-0.09375,-0.125]},{"bufferView":31,"componentType":5126,"count":24,"type":"VEC3","byteOffset":12},{"bufferView":32,"componentType":5126,"count":24,"type":"VEC2"},{"bufferView":5,"componentType":5123,"count":36,"type":"SCALAR"},{"bufferView":21,"componentType":5126,"count":24,"type":"VEC3","max":[0.0625,0.1875,0.0625],"min":[-0.0625,0.09375,-0.4375]},{"bufferView":21,"componentType":5126,"count":24,"type":"VEC3","byteOffset":12},{"bufferView":22,"componentType":5126,"count":24,"type":"VEC2"},{"bufferView":6,"componentType":5123,"count":36,"type":"SCALAR"},{"bufferView":33,"componentType":5126,"count":24,"type":"VEC3","max":[6.25E-05,0.3125,0],"min":[0,-0.03125,-0.4375]},{"bufferView":33,"componentType":5126,"count":24,"type":"VEC3","byteOffset":12},{"bufferView":34,"componentType":5126,"count":24,"type":"VEC2"},{"bufferView":7,"componentType":5123,"count":36,"type":"SCALAR"},{"bufferView":23,"componentType":5126,"count":24,"type":"VEC3","max":[0.0625,0.1875,0.0625],"min":[-0.0625,0.0625,-0.4375]},{"bufferView":23,"componentType":5126,"count":24,"type":"VEC3","byteOffset":12},{"bufferView":24,"componentType":5126,"count":24,"type":"VEC2"},{"bufferView":8,"componentType":5123,"count":36,"type":"SCALAR"},{"bufferView":35,"componentType":5126,"count":24,"type":"VEC3","max":[-0.0624375045,0.25,-0.125],"min":[-0.0625,-0.28125,-0.375]},{"bufferView":35,"componentType":5126,"count":24,"type":"VEC3","byteOffset":12},{"bufferView":36,"componentType":5126,"count":24,"type":"VEC2"},{"bufferView":9,"componentType":5123,"count":36,"type":"SCALAR"},{"bufferView":37,"componentType":5126,"count":24,"type":"VEC3","max":[0.0625624955,0.25,-0.125],"min":[0.0624999963,-0.28125,-0.375]},{"bufferView":37,"componentType":5126,"count":24,"type":"VEC3","byteOffset":12},{"bufferView":38,"componentType":5126,"count":24,"type":"VEC2"},{"bufferView":10,"componentType":5123,"count":36,"type":"SCALAR"},{"bufferView":39,"componentType":5126,"count":24,"type":"VEC3","max":[0.0625,0.1875,0.0625],"min":[-0.0625,0.03125,-0.4375]},{"bufferView":39,"componentType":5126,"count":24,"type":"VEC3","byteOffset":12},{"bufferView":40,"componentType":5126,"count":24,"type":"VEC2"},{"bufferView":11,"componentType":5123,"count":36,"type":"SCALAR"},{"bufferView":41,"componentType":5126,"count":24,"type":"VEC3","max":[6.25E-05,0.125,0.25],"min":[0,-0.0625,-0.0625]},{"bufferView":41,"componentType":5126,"count":24,"type":"VEC3","byteOffset":12},{"bufferView":42,"componentType":5126,"count":24,"type":"VEC2"},{"bufferView":12,"componentType":5123,"count":36,"type":"SCALAR"},{"bufferView":43,"componentType":5126,"count":24,"type":"VEC3","max":[6.25E-05,0.125,0.25],"min":[0,-0.0625,-0.0625]},{"bufferView":43,"componentType":5126,"count":24,"type":"VEC3","byteOffset":12},{"bufferView":44,"componentType":5126,"count":24,"type":"VEC2"},{"bufferView":13,"componentType":5123,"count":36,"type":"SCALAR"},{"bufferView":45,"componentType":5126,"count":24,"type":"VEC3","max":[0.0625,0.1875,0.0625],"min":[-0.0625,0,-0.4375]},{"bufferView":45,"componentType":5126,"count":24,"type":"VEC3","byteOffset":12},{"bufferView":46,"componentType":5126,"count":24,"type":"VEC2"},{"bufferView":14,"componentType":5123,"count":36,"type":"SCALAR"},{"bufferView":47,"componentType":5126,"count":24,"type":"VEC3","max":[6.25E-05,0.4375,0.0625],"min":[0,-0.09375,-0.4375]},{"bufferView":47,"componentType":5126,"count":24,"type":"VEC3","byteOffset":12},{"bufferView":48,"componentType":5126,"count":24,"type":"VEC2"},{"bufferView":15,"componentType":5123,"count":36,"type":"SCALAR"},{"bufferView":49,"componentType":5126,"count":24,"type":"VEC3","max":[0.0625,0.125,0],"min":[-0.0625,0.0625,-0.0625]},{"bufferView":49,"componentType":5126,"count":24,"type":"VEC3","byteOffset":12},{"bufferView":50,"componentType":5126,"count":24,"type":"VEC2"},{"bufferView":16,"componentType":5123,"count":36,"type":"SCALAR"}],"images":[{"name":"model.png","uri":"model.png","mimeType":"image/png"},{"name":"model.png","uri":"model_0.png","mimeType":"image/png"}],"materials":[{"pbrMetallicRoughness":{"metallicFactor":0,"baseColorTexture":{"index":0}},"alphaMode":"MASK","alphaCutoff":0.05,"doubleSided":true},{"pbrMetallicRoughness":{"metallicFactor":0,"baseColorTexture":{"index":1}},"alphaMode":"MASK","alphaCutoff":0.05,"doubleSided":true}],"meshes":[{"primitives":[{"attributes":{"POSITION":0,"NORMAL":1,"TEXCOORD_0":2},"indices":3,"material":0}]},{"primitives":[{"attributes":{"POSITION":4,"NORMAL":5,"TEXCOORD_0":6},"indices":7,"material":0}]},{"primitives":[{"attributes":{"POSITION":8,"NORMAL":9,"TEXCOORD_0":10},"indices":11,"material":0}]},{"primitives":[{"attributes":{"POSITION":12,"NORMAL":13,"TEXCOORD_0":14},"indices":15,"material":0}]},{"primitives":[{"attributes":{"POSITION":16,"NORMAL":17,"TEXCOORD_0":18},"indices":19,"material":0}]},{"primitives":[{"attributes":{"POSITION":20,"NORMAL":21,"TEXCOORD_0":22},"indices":23,"material":0}]},{"primitives":[{"attributes":{"POSITION":24,"NORMAL":25,"TEXCOORD_0":26},"indices":27,"material":0}]},{"primitives":[{"attributes":{"POSITION":28,"NORMAL":29,"TEXCOORD_0":30},"indices":31,"material":0}]},{"primitives":[{"attributes":{"POSITION":32,"NORMAL":33,"TEXCOORD_0":34},"indices":35,"material":0}]},{"primitives":[{"attributes":{"POSITION":36,"NORMAL":37,"TEXCOORD_0":38},"indices":39,"material":0}]},{"primitives":[{"attributes":{"POSITION":40,"NORMAL":41,"TEXCOORD_0":42},"indices":43,"material":0}]},{"primitives":[{"attributes":{"POSITION":44,"NORMAL":45,"TEXCOORD_0":46},"indices":47,"material":0}]},{"primitives":[{"attributes":{"POSITION":48,"NORMAL":49,"TEXCOORD_0":50},"indices":51,"material":0}]},{"primitives":[{"attributes":{"POSITION":52,"NORMAL":53,"TEXCOORD_0":54},"indices":55,"material":0}]},{"primitives":[{"attributes":{"POSITION":56,"NORMAL":57,"TEXCOORD_0":58},"indices":59,"material":0}]},{"primitives":[{"attributes":{"POSITION":60,"NORMAL":61,"TEXCOORD_0":62},"indices":63,"material":0}]},{"primitives":[{"attributes":{"POSITION":64,"NORMAL":65,"TEXCOORD_0":66},"indices":67,"material":1}]}],"scene":0,"scenes":[{"name":"model","nodes":[30]}],"textures":[{"source":0},{"source":1}]}