{
  "accessors": [
    {
      "bufferView": 2,
      "componentType": 5126,
      "count": 4625,
      "max": [
        3.480837345123291,
        0.7861619591712952,
        3.3711626529693604
      ],
      "min": [
        -3.487687587738037,
        -3.1009302139282227,
        -3.3711626529693604
      ],
      "type": "VEC3"
    },
    {
      "bufferView": 2,
      "byteOffset": 55500,
      "componentType": 5126,
      "count": 4625,
      "max": [
        1.0,
        1.0,
        1.0
      ],
      "min": [
        -1.0,
        -1.0,
        -1.0
      ],
      "type": "VEC3"
    },
    {
      "bufferView": 1,
      "componentType": 5126,
      "count": 4625,
      "max": [
        0.8261852264404297,
        0.9511851668357849
      ],
      "min": [
        0.1738148033618927,
        -1.2072610688917962e-09
      ],
      "type": "VEC2"
    },
    {
      "bufferView": 0,
      "componentType": 5125,
      "count": 6996,
      "type": "SCALAR"
    }
  ],
  "asset": {
    "extras": {
      "author": "Eirik Sundby (https://sketchfab.com/Eirik_Sundby)",
      "license": "CC-BY-4.0 (http://creativecommons.org/licenses/by/4.0/)",
      "source": "https://sketchfab.com/3d-models/rib-cage-bones-low-poly-prop-0390dbf638c94cefa14b2d608b015e48",
      "title": "Rib-cage bones low poly prop"
    },
    "generator": "Sketchfab-15.45.0",
    "version": "2.0"
  },
  "bufferViews": [
    {
      "buffer": 0,
      "byteLength": 27984,
      "name": "floatBufferViews",
      "target": 34963
    },
    {
      "buffer": 0,
      "byteLength": 37000,
      "byteOffset": 27984,
      "byteStride": 8,
      "name": "floatBufferViews",
      "target": 34962
    },
    {
      "buffer": 0,
      "byteLength": 111000,
      "byteOffset": 64984,
      "byteStride": 12,
      "name": "floatBufferViews",
      "target": 34962
    }
  ],
  "buffers": [
    {
      "byteLength": 175984,
      "uri": "scene.bin"
    }
  ],
  "materials": [
    {
      "doubleSided": true,
      "name": "bone",
      "pbrMetallicRoughness": {
        "baseColorFactor": [
          0.6610020011263742,
          0.37264538315423834,
          0.2889882809581406,
          1.0
        ],
        "metallicFactor": 0.0,
        "roughnessFactor": 0.6
      }
    }
  ],
  "meshes": [
    {
      "name": "bone1_bone_0",
      "primitives": [
        {
          "attributes": {
            "NORMAL": 1,
            "POSITION": 0,
            "TEXCOORD_0": 2
          },
          "indices": 3,
          "material": 0,
          "mode": 4
        }
      ]
    }
  ],
  "nodes": [
    {
      "children": [
        1
      ],
      "matrix": [
        1.0,
        0.0,
        0.0,
        0.0,
        0.0,
        2.220446049250313e-16,
        -1.0,
        0.0,
        0.0,
        1.0,
        2.220446049250313e-16,
        0.0,
        0.0,
        0.0,
        0.0,
        1.0
      ],
      "name": "Sketchfab_model"
    },
    {
      "children": [
        2
      ],
      "matrix": [
        0.009999999776482582,
        0.0,
        0.0,
        0.0,
        0.0,
        0.0,
        0.009999999776482582,
        0.0,
        0.0,
        -0.009999999776482582,
        0.0,
        0.0,
        0.0,
        0.0,
        0.0,
        1.0
      ],
      "name": "8462b0c62c8d450f83166b6c6bc1d6f6.fbx"
    },
    {
      "children": [
        3
      ],
      "name": "RootNode"
    },
    {
      "children": [
        4
      ],
      "name": "group"
    },
    {
      "children": [
        5
      ],
      "name": "bone1"
    },
    {
      "mesh": 0,
      "name": "bone1_bone_0"
    }
  ],
  "scene": 0,
  "scenes": [
    {
      "name": "Sketchfab_Scene",
      "nodes": [
        0
      ]
    }
  ]
}
