{"asset":{"version":"2.0","generator":"Unity 6000.3.10f1 glTFast 6.19.0"},"nodes":[{"name":"0d4b21b8-8352-25ba-9acd-f9cff483ac29","mesh":0,"translation":[-0.0625,-0.1875,-0.243811563]},{"name":"242bf210-54c4-aec1-4f3f-6acf85c74d35","mesh":1,"translation":[0,0.5584889,-0.08311467],"rotation":[-0.342020154,0,0,0.9396926]},{"name":"b7df9ece-2549-6b53-94ba-67c701b410de","mesh":2,"translation":[-0.21875,0.40625,-0.40625],"rotation":[0.42261827,0,0,0.9063078]},{"name":"37160f0b-52aa-a707-b88c-e050b1b69f88","mesh":3,"translation":[0.21875,0.40625,-0.40625],"rotation":[0.42261827,0,0,0.9063078]},{"name":"2e7d8584-19f4-9a07-5741-5914be51164a","mesh":4,"translation":[-0.003125002,0.506776869,-0.5190976],"rotation":[0.326505572,-0.6272114,-0.326505572,0.6272114]},{"name":"a39bfe68-39f5-5481-561d-16f8d6e12f07","mesh":5,"translation":[-0.0625,0.445791364,0.38963756],"rotation":[0.152123392,0,0,0.988361537]},{"name":"de197452-e901-53aa-15b0-f22584ede2c2","mesh":6,"translation":[-0.0625,0.445791364,0.38963756],"rotation":[0.152123392,0,0,0.988361537]},{"name":"2e85b148-ff87-f57a-dfa6-ca00ff7a1e2e","mesh":7,"translation":[0,0.372422248,0.341006279],"rotation":[-0.258819073,0,0,0.9659259]},{"name":"940214f0-e154-1ac7-4df7-76fc8727140d","mesh":8,"translation":[0,0.372422248,0.341006279],"rotation":[-0.258819073,0,0,0.9659259]},{"name":"4c610301-5f5f-ba8d-a3bb-b544d16e6a34","mesh":9,"translation":[-0.0625,-0.3336297,-0.03725092],"rotation":[0.0436193869,0,0,0.999048233]},{"name":"ebbfce05-e538-cbfc-f24d-a5843d3bd9bc","mesh":10,"translation":[-0.065625,-0.337015182,-0.0344101749],"rotation":[0.0436193869,0,0,0.999048233]},{"name":"93ecb573-df73-f196-fa99-f73d7097886f","mesh":11,"translation":[-0.003125,0.09920667,-0.2158313],"rotation":[0.0308435652,-0.7064338,-0.0308435652,0.7064338]},{"name":"476e2e88-d76e-9482-f492-94de284caa7a","mesh":12,"translation":[-0.065625,-0.337015182,-0.0344101749],"rotation":[0.0436193869,0,0,0.999048233]},{"name":"jaw","children":[9,10,11,12],"translation":[0,0.1875,-0.21875],"rotation":[0.0871557444,0,0,0.9961947]},{"name":"a7f1f245-6008-4cd9-ee26-2330e3473d7d","mesh":13,"translation":[-0.0625,-0.625,-0.806311548]},{"name":"7d66c8b0-307a-fd36-515b-92edeb108b47","mesh":14,"translation":[-0.0625,-0.625,-0.806311548]},{"name":"13d4fac4-376d-0f1f-6e37-be30b511008a","mesh":15,"translation":[-0.0625,-0.625,-0.806311548]},{"name":"tail","children":[14,15,16],"translation":[0,0.4375,0.5]},{"name":"bca59e07-e0b4-3fdd-89c5-9f5207622430","mesh":16,"translation":[-0.0625,-0.00617208425,-0.0163918734]},{"name":"28dea9ef-99f3-1e05-3408-84a0d562ba7d","mesh":17,"translation":[-0.06875,0.171930864,0.0163044725],"rotation":[-0.152123392,0,0,0.988361537]},{"name":"4ff2cec1-35e2-308f-0779-8f0b0f69a80c","mesh":18,"translation":[-0.06875,0.3177456,-0.0459464751],"rotation":[-0.5,0,0,0.8660254]},{"name":"c2a9dc84-154e-9c92-7508-40d15c44565b","mesh":19,"translation":[-0.06875,0.381300062,-0.12415918],"rotation":[-0.9659259,0,0,0.258819073]},{"name":"720baa3e-9d3e-a354-ad87-c0619900bb61","mesh":20,"translation":[-0.075,0.239732146,-0.265387863],"rotation":[-0.999048233,0,0,0.0436193869]},{"name":"ce05326d-2f7c-6e0b-8521-ebdf8f4542ad","mesh":21,"translation":[-0.0625,-0.00617208425,-0.0163918734]},{"name":"light","children":[18,19,20,21,22,23],"translation":[0.0625,0.6875,-0.21875],"rotation":[-0.152123392,0,0,0.988361537]},{"name":"ea9beaa6-e2bf-3b4c-981d-07fcf3fa57ab","mesh":22,"translation":[0.125,0,0.0625],"rotation":[0.42261827,0,0,0.9063078]},{"name":"112c93d5-2c28-5496-4b72-52458a816a26","mesh":23,"translation":[0.125,0,0.0625],"rotation":[0.42261827,0,0,0.9063078]},{"name":"2eb4c38a-5e16-790b-00b6-0e182494dbe0","mesh":24,"translation":[-0.03125,0.025,0.0125],"rotation":[0.42261827,0,0,0.9063078]},{"name":"outer","children":[27],"translation":[0,0.01875,0],"rotation":[-0.0264159516,0.1716272,-0.149812311,0.9733461]},{"name":"fin","children":[25,26,28],"translation":[-0.375,0.4375,0.125]},{"name":"1a676287-5a2e-ea0e-4fc2-a1c2b16c02ce","mesh":25,"translation":[-0.125,0,0.0625],"rotation":[0.42261827,0,0,0.9063078]},{"name":"9202055b-9253-467c-0b78-bdbd95f45a5e","mesh":26,"translation":[-0.125,0,0.0625],"rotation":[0.42261827,0,0,0.9063078]},{"name":"e688dd0f-85e1-cdb4-d630-8b20c796cd70","mesh":27,"translation":[0.03125,0.025,0.0125],"rotation":[0.42261827,0,0,0.9063078]},{"name":"outer2","children":[32],"translation":[0,0.01875,0],"rotation":[-0.0264159516,-0.1716272,0.149812311,0.9733461]},{"name":"fin2","children":[30,31,33],"translation":[0.375,0.4375,0.125]},{"name":"model","children":[0,1,2,3,4,5,6,7,8,13,17,24,29,34]}],"buffers":[{"uri":"angler.bin","byteLength":34272}],"bufferViews":[{"buffer":0,"byteLength":72,"target":34963},{"buffer":0,"byteLength":72,"byteOffset":72,"target":34963},{"buffer":0,"byteLength":72,"byteOffset":144,"target":34963},{"buffer":0,"byteLength":72,"byteOffset":216,"target":34963},{"buffer":0,"byteLength":72,"byteOffset":288,"target":34963},{"buffer":0,"byteLength":72,"byteOffset":360,"target":34963},{"buffer":0,"byteLength":72,"byteOffset":432,"target":34963},{"buffer":0,"byteLength":72,"byteOffset":504,"target":34963},{"buffer":0,"byteLength":72,"byteOffset":576,"target":34963},{"buffer":0,"byteLength":72,"byteOffset":648,"target":34963},{"buffer":0,"byteLength":72,"byteOffset":720,"target":34963},{"buffer":0,"byteLength":72,"byteOffset":792,"target":34963},{"buffer":0,"byteLength":72,"byteOffset":864,"target":34963},{"buffer":0,"byteLength":72,"byteOffset":936,"target":34963},{"buffer":0,"byteLength":72,"byteOffset":1008,"target":34963},{"buffer":0,"byteLength":72,"byteOffset":1080,"target":34963},{"buffer":0,"byteLength":72,"byteOffset":1152,"target":34963},{"buffer":0,"byteLength":72,"byteOffset":1224,"target":34963},{"buffer":0,"byteLength":72,"byteOffset":1296,"target":34963},{"buffer":0,"byteLength":72,"byteOffset":1368,"target":34963},{"buffer":0,"byteLength":72,"byteOffset":1440,"target":34963},{"buffer":0,"byteLength":72,"byteOffset":1512,"target":34963},{"buffer":0,"byteLength":72,"byteOffset":1584,"target":34963},{"buffer":0,"byteLength":72,"byteOffset":1656,"target":34963},{"buffer":0,"byteLength":72,"byteOffset":1728,"target":34963},{"buffer":0,"byteLength":72,"byteOffset":1800,"target":34963},{"buffer":0,"byteLength":72,"byteOffset":1872,"target":34963},{"buffer":0,"byteLength":72,"byteOffset":1944,"target":34963},{"buffer":0,"byteLength":864,"byteOffset":2016,"byteStride":24,"target":34962},{"buffer":0,"byteLength":288,"byteOffset":2880,"byteStride":8,"target":34962},{"buffer":0,"byteLength":864,"byteOffset":3168,"byteStride":24,"target":34962},{"buffer":0,"byteLength":288,"byteOffset":4032,"byteStride":8,"target":34962},{"buffer":0,"byteLength":864,"byteOffset":4320,"byteStride":24,"target":34962},{"buffer":0,"byteLength":288,"byteOffset":5184,"byteStride":8,"target":34962},{"buffer":0,"byteLength":864,"byteOffset":5472,"byteStride":24,"target":34962},{"buffer":0,"byteLength":288,"byteOffset":6336,"byteStride":8,"target":34962},{"buffer":0,"byteLength":864,"byteOffset":6624,"byteStride":24,"target":34962},{"buffer":0,"byteLength":288,"byteOffset":7488,"byteStride":8,"target":34962},{"buffer":0,"byteLength":864,"byteOffset":7776,"byteStride":24,"target":34962},{"buffer":0,"byteLength":288,"byteOffset":8640,"byteStride":8,"target":34962},{"buffer":0,"byteLength":864,"byteOffset":8928,"byteStride":24,"target":34962},{"buffer":0,"byteLength":288,"byteOffset":9792,"byteStride":8,"target":34962},{"buffer":0,"byteLength":864,"byteOffset":10080,"byteStride":24,"target":34962},{"buffer":0,"byteLength":288,"byteOffset":10944,"byteStride":8,"target":34962},{"buffer":0,"byteLength":864,"byteOffset":11232,"byteStride":24,"target":34962},{"buffer":0,"byteLength":288,"byteOffset":12096,"byteStride":8,"target":34962},{"buffer":0,"byteLength":864,"byteOffset":12384,"byteStride":24,"target":34962},{"buffer":0,"byteLength":288,"byteOffset":13248,"byteStride":8,"target":34962},{"buffer":0,"byteLength":864,"byteOffset":13536,"byteStride":24,"target":34962},{"buffer":0,"byteLength":288,"byteOffset":14400,"byteStride":8,"target":34962},{"buffer":0,"byteLength":864,"byteOffset":14688,"byteStride":24,"target":34962},{"buffer":0,"byteLength":288,"byteOffset":15552,"byteStride":8,"target":34962},{"buffer":0,"byteLength":864,"byteOffset":15840,"byteStride":24,"target":34962},{"buffer":0,"byteLength":288,"byteOffset":16704,"byteStride":8,"target":34962},{"buffer":0,"byteLength":864,"byteOffset":16992,"byteStride":24,"target":34962},{"buffer":0,"byteLength":288,"byteOffset":17856,"byteStride":8,"target":34962},{"buffer":0,"byteLength":864,"byteOffset":18144,"byteStride":24,"target":34962},{"buffer":0,"byteLength":288,"byteOffset":19008,"byteStride":8,"target":34962},{"buffer":0,"byteLength":864,"byteOffset":19296,"byteStride":24,"target":34962},{"buffer":0,"byteLength":288,"byteOffset":20160,"byteStride":8,"target":34962},{"buffer":0,"byteLength":864,"byteOffset":20448,"byteStride":24,"target":34962},{"buffer":0,"byteLength":288,"byteOffset":21312,"byteStride":8,"target":34962},{"buffer":0,"byteLength":864,"byteOffset":21600,"byteStride":24,"target":34962},{"buffer":0,"byteLength":288,"byteOffset":22464,"byteStride":8,"target":34962},{"buffer":0,"byteLength":864,"byteOffset":22752,"byteStride":24,"target":34962},{"buffer":0,"byteLength":288,"byteOffset":23616,"byteStride":8,"target":34962},{"buffer":0,"byteLength":864,"byteOffset":23904,"byteStride":24,"target":34962},{"buffer":0,"byteLength":288,"byteOffset":24768,"byteStride":8,"target":34962},{"buffer":0,"byteLength":864,"byteOffset":25056,"byteStride":24,"target":34962},{"buffer":0,"byteLength":288,"byteOffset":25920,"byteStride":8,"target":34962},{"buffer":0,"byteLength":864,"byteOffset":26208,"byteStride":24,"target":34962},{"buffer":0,"byteLength":288,"byteOffset":27072,"byteStride":8,"target":34962},{"buffer":0,"byteLength":864,"byteOffset":27360,"byteStride":24,"target":34962},{"buffer":0,"byteLength":288,"byteOffset":28224,"byteStride":8,"target":34962},{"buffer":0,"byteLength":864,"byteOffset":28512,"byteStride":24,"target":34962},{"buffer":0,"byteLength":288,"byteOffset":29376,"byteStride":8,"target":34962},{"buffer":0,"byteLength":864,"byteOffset":29664,"byteStride":24,"target":34962},{"buffer":0,"byteLength":288,"byteOffset":30528,"byteStride":8,"target":34962},{"buffer":0,"byteLength":864,"byteOffset":30816,"byteStride":24,"target":34962},{"buffer":0,"byteLength":288,"byteOffset":31680,"byteStride":8,"target":34962},{"buffer":0,"byteLength":864,"byteOffset":31968,"byteStride":24,"target":34962},{"buffer":0,"byteLength":288,"byteOffset":32832,"byteStride":8,"target":34962},{"buffer":0,"byteLength":864,"byteOffset":33120,"byteStride":24,"target":34962},{"buffer":0,"byteLength":288,"byteOffset":33984,"byteStride":8,"target":34962}],"accessors":[{"bufferView":50,"componentType":5126,"count":36,"type":"VEC3","max":[0.3125,0.9375,0.5],"min":[-0.1875,0.3125,0]},{"bufferView":50,"componentType":5126,"count":36,"type":"VEC3","byteOffset":12},{"bufferView":51,"componentType":5126,"count":36,"type":"VEC2"},{"bufferView":1,"componentType":5123,"count":36,"type":"SCALAR"},{"bufferView":52,"componentType":5126,"count":36,"type":"VEC3","max":[0.246875,0.246875,-0.003125012],"min":[-0.246875,-0.184375,-0.309375]},{"bufferView":52,"componentType":5126,"count":36,"type":"VEC3","byteOffset":12},{"bufferView":53,"componentType":5126,"count":36,"type":"VEC2"},{"bufferView":2,"componentType":5123,"count":36,"type":"SCALAR"},{"bufferView":28,"componentType":5126,"count":36,"type":"VEC3","max":[6.25E-05,0.0375,0.21875],"min":[0,-0.0875,-0.15625]},{"bufferView":28,"componentType":5126,"count":36,"type":"VEC3","byteOffset":12},{"bufferView":29,"componentType":5126,"count":36,"type":"VEC2"},{"bufferView":3,"componentType":5123,"count":36,"type":"SCALAR"},{"bufferView":30,"componentType":5126,"count":36,"type":"VEC3","max":[6.25E-05,0.0375,0.21875],"min":[0,-0.0875,-0.15625]},{"bufferView":30,"componentType":5126,"count":36,"type":"VEC3","byteOffset":12},{"bufferView":31,"componentType":5126,"count":36,"type":"VEC2"},{"bufferView":4,"componentType":5123,"count":36,"type":"SCALAR"},{"bufferView":32,"componentType":5126,"count":36,"type":"VEC3","max":[0.015625,0.065625,0.215625],"min":[0.009375,-0.053125,-0.215625]},{"bufferView":32,"componentType":5126,"count":36,"type":"VEC3","byteOffset":12},{"bufferView":33,"componentType":5126,"count":36,"type":"VEC2"},{"bufferView":0,"componentType":5123,"count":36,"type":"SCALAR"},{"bufferView":54,"componentType":5126,"count":36,"type":"VEC3","max":[0.25,0.25,0.21875],"min":[-0.125,-0.0625,-0.21875]},{"bufferView":54,"componentType":5126,"count":36,"type":"VEC3","byteOffset":12},{"bufferView":55,"componentType":5126,"count":36,"type":"VEC2"},{"bufferView":5,"componentType":5123,"count":36,"type":"SCALAR"},{"bufferView":56,"componentType":5126,"count":36,"type":"VEC3","max":[0.0625624955,0.4375,0.21875],"min":[0.0624999963,0.25,-0.21875]},{"bufferView":56,"componentType":5126,"count":36,"type":"VEC3","byteOffset":12},{"bufferView":57,"componentType":5126,"count":36,"type":"VEC2"},{"bufferView":6,"componentType":5123,"count":36,"type":"SCALAR"},{"bufferView":58,"componentType":5126,"count":36,"type":"VEC3","max":[0.184375,0.146874979,0.178124979],"min":[-0.184375,-0.159375,-0.190625]},{"bufferView":58,"componentType":5126,"count":36,"type":"VEC3","byteOffset":12},{"bufferView":59,"componentType":5126,"count":36,"type":"VEC2"},{"bufferView":7,"componentType":5123,"count":36,"type":"SCALAR"},{"bufferView":34,"componentType":5126,"count":36,"type":"VEC3","max":[0.003125,-0.159375012,0.178125],"min":[-0.003125,-0.340625,-0.065625]},{"bufferView":34,"componentType":5126,"count":36,"type":"VEC3","byteOffset":12},{"bufferView":35,"componentType":5126,"count":36,"type":"VEC2"},{"bufferView":8,"componentType":5123,"count":36,"type":"SCALAR"},{"bufferView":60,"componentType":5126,"count":36,"type":"VEC3","max":[0.309375,0.390625,-0.003125012],"min":[-0.184374988,0.271875024,-0.434375]},{"bufferView":60,"componentType":5126,"count":36,"type":"VEC3","byteOffset":12},{"bufferView":61,"componentType":5126,"count":36,"type":"VEC2"},{"bufferView":9,"componentType":5123,"count":36,"type":"SCALAR"},{"bufferView":36,"componentType":5126,"count":36,"type":"VEC3","max":[-0.121875,0.509375,-0.003125012],"min":[-0.128125,0.390625,-0.434375]},{"bufferView":36,"componentType":5126,"count":36,"type":"VEC3","byteOffset":12},{"bufferView":37,"componentType":5126,"count":36,"type":"VEC2"},{"bufferView":10,"componentType":5123,"count":36,"type":"SCALAR"},{"bufferView":62,"componentType":5126,"count":36,"type":"VEC3","max":[-0.209375,0.090625,0.215625],"min":[-0.215625018,-0.028125,-0.215625]},{"bufferView":62,"componentType":5126,"count":36,"type":"VEC3","byteOffset":12},{"bufferView":63,"componentType":5126,"count":36,"type":"VEC2"},{"bufferView":11,"componentType":5123,"count":36,"type":"SCALAR"},{"bufferView":64,"componentType":5126,"count":36,"type":"VEC3","max":[0.253125,0.509375,-0.003125012],"min":[0.246874988,0.390625,-0.434375]},{"bufferView":64,"componentType":5126,"count":36,"type":"VEC3","byteOffset":12},{"bufferView":65,"componentType":5126,"count":36,"type":"VEC2"},{"bufferView":12,"componentType":5123,"count":36,"type":"SCALAR"},{"bufferView":66,"componentType":5126,"count":36,"type":"VEC3","max":[0.1875,0.75,1],"min":[-0.0625,0.5,0.875]},{"bufferView":66,"componentType":5126,"count":36,"type":"VEC3","byteOffset":12},{"bufferView":67,"componentType":5126,"count":36,"type":"VEC2"},{"bufferView":13,"componentType":5123,"count":36,"type":"SCALAR"},{"bufferView":38,"componentType":5126,"count":36,"type":"VEC3","max":[0.121875,0.746875,1.121875],"min":[0.003124997,0.503125,0.940624952]},{"bufferView":38,"componentType":5126,"count":36,"type":"VEC3","byteOffset":12},{"bufferView":39,"componentType":5126,"count":36,"type":"VEC2"},{"bufferView":14,"componentType":5123,"count":36,"type":"SCALAR"},{"bufferView":40,"componentType":5126,"count":36,"type":"VEC3","max":[0.0625624955,0.8125,1.4875],"min":[0.0624999963,0.4375,1.1125]},{"bufferView":40,"componentType":5126,"count":36,"type":"VEC3","byteOffset":12},{"bufferView":41,"componentType":5126,"count":36,"type":"VEC2"},{"bufferView":15,"componentType":5123,"count":36,"type":"SCALAR"},{"bufferView":68,"componentType":5126,"count":36,"type":"VEC3","max":[0.03125,0.1875,0.0625],"min":[-0.03125,-0.0625,0]},{"bufferView":68,"componentType":5126,"count":36,"type":"VEC3","byteOffset":12},{"bufferView":69,"componentType":5126,"count":36,"type":"VEC2"},{"bufferView":16,"componentType":5123,"count":36,"type":"SCALAR"},{"bufferView":42,"componentType":5126,"count":36,"type":"VEC3","max":[0.034375,0.184375,0.028125],"min":[-0.0218749978,0.003124997,-0.028125]},{"bufferView":42,"componentType":5126,"count":36,"type":"VEC3","byteOffset":12},{"bufferView":43,"componentType":5126,"count":36,"type":"VEC2"},{"bufferView":17,"componentType":5123,"count":36,"type":"SCALAR"},{"bufferView":70,"componentType":5126,"count":36,"type":"VEC3","max":[0.03125,0.168241262,0.04701908],"min":[-0.01875,-0.00675873458,-0.00298091583]},{"bufferView":70,"componentType":5126,"count":36,"type":"VEC3","byteOffset":12},{"bufferView":71,"componentType":5126,"count":36,"type":"VEC2"},{"bufferView":18,"componentType":5123,"count":36,"type":"SCALAR"},{"bufferView":44,"componentType":5126,"count":36,"type":"VEC3","max":[0.03125,0.193914384,0.06872985],"min":[-0.01875,0.0189143643,0.01872984]},{"bufferView":44,"componentType":5126,"count":36,"type":"VEC3","byteOffset":12},{"bufferView":45,"componentType":5126,"count":36,"type":"VEC2"},{"bufferView":19,"componentType":5123,"count":36,"type":"SCALAR"},{"bufferView":72,"componentType":5126,"count":36,"type":"VEC3","max":[0.03125,0.09336151,0.0158893224],"min":[-0.00625000149,-0.00663849339,-0.02161068]},{"bufferView":72,"componentType":5126,"count":36,"type":"VEC3","byteOffset":12},{"bufferView":73,"componentType":5126,"count":36,"type":"VEC2"},{"bufferView":20,"componentType":5123,"count":36,"type":"SCALAR"},{"bufferView":46,"componentType":5126,"count":36,"type":"VEC3","max":[0.03125,0.1625,-0.225],"min":[-0.03125,0.099999994,-0.2875]},{"bufferView":46,"componentType":5126,"count":36,"type":"VEC3","byteOffset":12},{"bufferView":47,"componentType":5126,"count":36,"type":"VEC2"},{"bufferView":21,"componentType":5123,"count":36,"type":"SCALAR"},{"bufferView":74,"componentType":5126,"count":36,"type":"VEC3","max":[0,0,0],"min":[-0.0625,-0.0625,-0.125]},{"bufferView":74,"componentType":5126,"count":36,"type":"VEC3","byteOffset":12},{"bufferView":75,"componentType":5126,"count":36,"type":"VEC2"},{"bufferView":22,"componentType":5123,"count":36,"type":"SCALAR"},{"bufferView":48,"componentType":5126,"count":36,"type":"VEC3","max":[-0.0625,0,-0.03125],"min":[-0.125,-0.0625,-0.09375]},{"bufferView":48,"componentType":5126,"count":36,"type":"VEC3","byteOffset":12},{"bufferView":49,"componentType":5126,"count":36,"type":"VEC2"},{"bufferView":23,"componentType":5123,"count":36,"type":"SCALAR"},{"bufferView":76,"componentType":5126,"count":36,"type":"VEC3","max":[0.03125,-0.0210072361,0.128153831],"min":[-0.21875,-0.0210697353,-0.121846177]},{"bufferView":76,"componentType":5126,"count":36,"type":"VEC3","byteOffset":12},{"bufferView":77,"componentType":5126,"count":36,"type":"VEC2"},{"bufferView":24,"componentType":5123,"count":36,"type":"SCALAR"},{"bufferView":78,"componentType":5126,"count":36,"type":"VEC3","max":[0.0625,0,0],"min":[0,-0.0625,-0.125]},{"bufferView":78,"componentType":5126,"count":36,"type":"VEC3","byteOffset":12},{"bufferView":79,"componentType":5126,"count":36,"type":"VEC2"},{"bufferView":25,"componentType":5123,"count":36,"type":"SCALAR"},{"bufferView":80,"componentType":5126,"count":36,"type":"VEC3","max":[0.125,0,-0.03125],"min":[0.0625,-0.0625,-0.09375]},{"bufferView":80,"componentType":5126,"count":36,"type":"VEC3","byteOffset":12},{"bufferView":81,"componentType":5126,"count":36,"type":"VEC2"},{"bufferView":26,"componentType":5123,"count":36,"type":"SCALAR"},{"bufferView":82,"componentType":5126,"count":36,"type":"VEC3","max":[0.21875,-0.0210072361,0.128153831],"min":[-0.03125,-0.0210697353,-0.121846177]},{"bufferView":82,"componentType":5126,"count":36,"type":"VEC3","byteOffset":12},{"bufferView":83,"componentType":5126,"count":36,"type":"VEC2"},{"bufferView":27,"componentType":5123,"count":36,"type":"SCALAR"}],"images":[{"name":"model.png","uri":"model.png","mimeType":"image/png"}],"materials":[{"pbrMetallicRoughness":{"metallicFactor":0,"baseColorTexture":{"index":0}},"alphaMode":"MASK","alphaCutoff":0.05,"doubleSided":true}],"meshes":[{"primitives":[{"attributes":{"POSITION":0,"NORMAL":1,"TEXCOORD_0":2},"indices":3,"material":0}]},{"primitives":[{"attributes":{"POSITION":4,"NORMAL":5,"TEXCOORD_0":6},"indices":7,"material":0}]},{"primitives":[{"attributes":{"POSITION":8,"NORMAL":9,"TEXCOORD_0":10},"indices":11,"material":0}]},{"primitives":[{"attributes":{"POSITION":12,"NORMAL":13,"TEXCOORD_0":14},"indices":15,"material":0}]},{"primitives":[{"attributes":{"POSITION":16,"NORMAL":17,"TEXCOORD_0":18},"indices":19,"material":0}]},{"primitives":[{"attributes":{"POSITION":20,"NORMAL":21,"TEXCOORD_0":22},"indices":23,"material":0}]},{"primitives":[{"attributes":{"POSITION":24,"NORMAL":25,"TEXCOORD_0":26},"indices":27,"material":0}]},{"primitives":[{"attributes":{"POSITION":28,"NORMAL":29,"TEXCOORD_0":30},"indices":31,"material":0}]},{"primitives":[{"attributes":{"POSITION":32,"NORMAL":33,"TEXCOORD_0":34},"indices":35,"material":0}]},{"primitives":[{"attributes":{"POSITION":36,"NORMAL":37,"TEXCOORD_0":38},"indices":39,"material":0}]},{"primitives":[{"attributes":{"POSITION":40,"NORMAL":41,"TEXCOORD_0":42},"indices":43,"material":0}]},{"primitives":[{"attributes":{"POSITION":44,"NORMAL":45,"TEXCOORD_0":46},"indices":47,"material":0}]},{"primitives":[{"attributes":{"POSITION":48,"NORMAL":49,"TEXCOORD_0":50},"indices":51,"material":0}]},{"primitives":[{"attributes":{"POSITION":52,"NORMAL":53,"TEXCOORD_0":54},"indices":55,"material":0}]},{"primitives":[{"attributes":{"POSITION":56,"NORMAL":57,"TEXCOORD_0":58},"indices":59,"material":0}]},{"primitives":[{"attributes":{"POSITION":60,"NORMAL":61,"TEXCOORD_0":62},"indices":63,"material":0}]},{"primitives":[{"attributes":{"POSITION":64,"NORMAL":65,"TEXCOORD_0":66},"indices":67,"material":0}]},{"primitives":[{"attributes":{"POSITION":68,"NORMAL":69,"TEXCOORD_0":70},"indices":71,"material":0}]},{"primitives":[{"attributes":{"POSITION":72,"NORMAL":73,"TEXCOORD_0":74},"indices":75,"material":0}]},{"primitives":[{"attributes":{"POSITION":76,"NORMAL":77,"TEXCOORD_0":78},"indices":79,"material":0}]},{"primitives":[{"attributes":{"POSITION":80,"NORMAL":81,"TEXCOORD_0":82},"indices":83,"material":0}]},{"primitives":[{"attributes":{"POSITION":84,"NORMAL":85,"TEXCOORD_0":86},"indices":87,"material":0}]},{"primitives":[{"attributes":{"POSITION":88,"NORMAL":89,"TEXCOORD_0":90},"indices":91,"material":0}]},{"primitives":[{"attributes":{"POSITION":92,"NORMAL":93,"TEXCOORD_0":94},"indices":95,"material":0}]},{"primitives":[{"attributes":{"POSITION":96,"NORMAL":97,"TEXCOORD_0":98},"indices":99,"material":0}]},{"primitives":[{"attributes":{"POSITION":100,"NORMAL":101,"TEXCOORD_0":102},"indices":103,"material":0}]},{"primitives":[{"attributes":{"POSITION":104,"NORMAL":105,"TEXCOORD_0":106},"indices":107,"material":0}]},{"primitives":[{"attributes":{"POSITION":108,"NORMAL":109,"TEXCOORD_0":110},"indices":111,"material":0}]}],"scene":0,"scenes":[{"name":"model","nodes":[35]}],"textures":[{"source":0}]}