{"asset":{"version":"2.0","generator":"Unity 6000.3.10f1 glTFast 6.19.0"},"nodes":[{"name":"Plane_New_Material_5_0","mesh":0},{"name":"Plane","children":[0],"translation":[0,10.8257294,0],"rotation":[-0.499913752,-0.5000863,-0.499913752,0.5000863],"scale":[1.1183759,1.11837578,1.11837566]},{"name":"Cube_New_Material_4_0_0","mesh":1},{"name":"Cube","children":[2],"translation":[0,10.8257294,0],"rotation":[-0.499913752,-0.5000863,-0.499913752,0.5000863],"scale":[1.1183759,1.11837578,1.11837566]},{"name":"RootNode","children":[1,3]},{"name":"e2e2b44c4b2e4caeb83422571fbe97f9.fbx","children":[4],"rotation":[0.7071068,0,0,0.7071068],"scale":[0.01,0.01,0.01]},{"name":"scene","children":[5],"rotation":[0.707106769,0,0,-0.7071067],"scale":[1,1.00000012,1.00000012]}],"buffers":[{"uri":"Lift.bin","byteLength":28608}],"bufferViews":[{"buffer":0,"byteLength":4272,"target":34963},{"buffer":0,"byteLength":3120,"byteOffset":4272,"target":34963},{"buffer":0,"byteLength":7392,"byteOffset":7392,"byteStride":24,"target":34962},{"buffer":0,"byteLength":2464,"byteOffset":14784,"byteStride":8,"target":34962},{"buffer":0,"byteLength":6816,"byteOffset":17248,"byteStride":24,"target":34962},{"buffer":0,"byteLength":4544,"byteOffset":24064,"byteStride":16,"target":34962}],"accessors":[{"bufferView":4,"componentType":5126,"count":284,"type":"VEC3","max":[95.1203461,95.1203461,-103.099274],"min":[-95.1203461,-95.1203461,-128.359772]},{"bufferView":4,"componentType":5126,"count":284,"type":"VEC3","byteOffset":12},{"bufferView":5,"componentType":5126,"count":284,"type":"VEC2"},{"bufferView":5,"componentType":5126,"count":284,"type":"VEC2","byteOffset":8},{"bufferView":0,"componentType":5125,"count":1068,"type":"SCALAR"},{"bufferView":2,"componentType":5126,"count":308,"type":"VEC3","max":[109,109,109],"min":[-109,-109,-109]},{"bufferView":2,"componentType":5126,"count":308,"type":"VEC3","byteOffset":12},{"bufferView":3,"componentType":5126,"count":308,"type":"VEC2"},{"bufferView":1,"componentType":5125,"count":780,"type":"SCALAR"}],"materials":[{"name":"New_Material_5","pbrMetallicRoughness":{"metallicFactor":0,"roughnessFactor":0.6},"doubleSided":true},{"name":"New_Material_4_0","pbrMetallicRoughness":{"metallicFactor":0,"roughnessFactor":0.6},"doubleSided":true}],"meshes":[{"name":"Plane_New_Material_5_0","primitives":[{"attributes":{"POSITION":0,"NORMAL":1,"TEXCOORD_0":2,"TEXCOORD_1":3},"indices":4,"material":0}]},{"name":"Cube_New_Material_4_0_0","primitives":[{"attributes":{"POSITION":5,"NORMAL":6,"TEXCOORD_0":7},"indices":8,"material":1}]}],"scene":0,"scenes":[{"name":"scene","nodes":[6]}]}