{
  "accessors": [
    {
      "bufferView": 2,
      "componentType": 5126,
      "count": 13549,
      "max": [
        1.3488396406173706,
        0.7826954126358032,
        0.13869914412498474
      ],
      "min": [
        -1.6596394777297974,
        -0.9431507587432861,
        -0.4499950110912323
      ],
      "type": "VEC3"
    },
    {
      "bufferView": 2,
      "byteOffset": 162588,
      "componentType": 5126,
      "count": 13549,
      "max": [
        1.0,
        1.0,
        1.0
      ],
      "min": [
        -1.0,
        -1.0,
        -1.0
      ],
      "type": "VEC3"
    },
    {
      "bufferView": 3,
      "componentType": 5126,
      "count": 13549,
      "max": [
        1.0,
        1.0,
        1.0,
        1.0
      ],
      "min": [
        -1.0,
        -1.0,
        -1.0,
        -1.0
      ],
      "type": "VEC4"
    },
    {
      "bufferView": 1,
      "componentType": 5126,
      "count": 13549,
      "max": [
        0.997096061706543,
        0.9973787665367126
      ],
      "min": [
        0.0026212232187390327,
        0.0026212232187390327
      ],
      "type": "VEC2"
    },
    {
      "bufferView": 1,
      "byteOffset": 108392,
      "componentType": 5126,
      "count": 13549,
      "max": [
        0.997096061706543,
        0.9973787665367126
      ],
      "min": [
        0.0026212232187390327,
        0.0026212232187390327
      ],
      "type": "VEC2"
    },
    {
      "bufferView": 1,
      "byteOffset": 216784,
      "componentType": 5126,
      "count": 13549,
      "max": [
        0.997096061706543,
        0.9973787665367126
      ],
      "min": [
        0.0026212232187390327,
        0.0026212232187390327
      ],
      "type": "VEC2"
    },
    {
      "bufferView": 0,
      "componentType": 5125,
      "count": 37563,
      "type": "SCALAR"
    }
  ],
  "asset": {
    "extras": {
      "author": "Skotchet (https://sketchfab.com/Skotcher)",
      "license": "CC-BY-4.0 (http://creativecommons.org/licenses/by/4.0/)",
      "source": "https://sketchfab.com/3d-models/bunker-door-153c7436da9b47e59f7539c1c54104f1",
      "title": "Bunker Door"
    },
    "generator": "Sketchfab-12.68.0",
    "version": "2.0"
  },
  "bufferViews": [
    {
      "buffer": 0,
      "byteLength": 150252,
      "name": "floatBufferViews",
      "target": 34963
    },
    {
      "buffer": 0,
      "byteLength": 325176,
      "byteOffset": 150252,
      "byteStride": 8,
      "name": "floatBufferViews",
      "target": 34962
    },
    {
      "buffer": 0,
      "byteLength": 325176,
      "byteOffset": 475428,
      "byteStride": 12,
      "name": "floatBufferViews",
      "target": 34962
    },
    {
      "buffer": 0,
      "byteLength": 216784,
      "byteOffset": 800604,
      "byteStride": 16,
      "name": "floatBufferViews",
      "target": 34962
    }
  ],
  "buffers": [
    {
      "byteLength": 1017388,
      "uri": "scene.bin"
    }
  ],
  "images": [
    {
      "uri": "textures/Door_baseColor.png"
    },
    {
      "uri": "textures/Door_metallicRoughness.png"
    },
    {
      "uri": "textures/Door_normal.png"
    }
  ],
  "materials": [
    {
      "doubleSided": true,
      "name": "Door",
      "normalTexture": {
        "index": 2
      },
      "occlusionTexture": {
        "index": 1
      },
      "pbrMetallicRoughness": {
        "baseColorTexture": {
          "index": 0
        },
        "metallicRoughnessTexture": {
          "index": 1
        }
      }
    }
  ],
  "meshes": [
    {
      "name": "Door_Door_0",
      "primitives": [
        {
          "attributes": {
            "NORMAL": 1,
            "POSITION": 0,
            "TANGENT": 2,
            "TEXCOORD_0": 3,
            "TEXCOORD_1": 4,
            "TEXCOORD_2": 5
          },
          "indices": 6,
          "material": 0,
          "mode": 4
        }
      ]
    }
  ],
  "nodes": [
    {
      "children": [
        1
      ],
      "matrix": [
        1.0,
        0.0,
        0.0,
        0.0,
        0.0,
        2.220446049250313e-16,
        -1.0,
        0.0,
        0.0,
        1.0,
        2.220446049250313e-16,
        0.0,
        0.0,
        0.0,
        0.0,
        1.0
      ],
      "name": "Sketchfab_model"
    },
    {
      "children": [
        2
      ],
      "matrix": [
        1.0,
        0.0,
        0.0,
        0.0,
        0.0,
        0.0,
        1.0,
        0.0,
        0.0,
        -1.0,
        0.0,
        0.0,
        0.0,
        0.0,
        0.0,
        1.0
      ],
      "name": "458a4e0cf1de4114875be7586d98013f.fbx"
    },
    {
      "children": [
        3
      ],
      "name": "RootNode"
    },
    {
      "children": [
        4
      ],
      "matrix": [
        7.549789948768648e-06,
        -99.99999999999973,
        0.0,
        0.0,
        7.549789954319763e-06,
        5.551115123125783e-13,
        -99.99999999999973,
        0.0,
        99.99999999999945,
        7.549789954319763e-06,
        7.549789948768648e-06,
        0.0,
        38.96543884277344,
        139.4580535888672,
        -0.38318634033203125,
        1.0
      ],
      "name": "Door"
    },
    {
      "mesh": 0,
      "name": "Door_Door_0"
    }
  ],
  "samplers": [
    {
      "magFilter": 9729,
      "minFilter": 9987,
      "wrapS": 10497,
      "wrapT": 10497
    }
  ],
  "scene": 0,
  "scenes": [
    {
      "name": "Sketchfab_Scene",
      "nodes": [
        0
      ]
    }
  ],
  "textures": [
    {
      "sampler": 0,
      "source": 0
    },
    {
      "sampler": 0,
      "source": 1
    },
    {
      "sampler": 0,
      "source": 2
    }
  ]
}
