{"asset":{"version":"2.0","generator":"Unity 6000.3.10f1 glTFast 6.19.0"},"nodes":[{"name":"Object_9","mesh":0},{"name":"Key_default_0_7","children":[0]},{"name":"Key_6","children":[1]},{"name":"Object_12","mesh":1},{"name":"Ring_default_0_9","children":[3]},{"name":"Ring_8","children":[4]},{"name":"Key3_obj_5","children":[2,5],"translation":[0,89.3058548,-5.46840659E-15],"rotation":[0.7071068,0,0,0.7071068]},{"name":"RootNode_2","children":[6]},{"name":"5f4d52f4dff2406a8dfa92142630cd19.fbx_1","children":[7],"rotation":[0.7071068,0,0,0.7071068],"scale":[0.01,0.01,0.01]},{"name":"Sketchfab_model_0","children":[8],"rotation":[-0.7071068,0,0,0.7071068]},{"name":"GLTF_SceneRootNode","children":[9],"rotation":[0.7071068,0,0,0.7071068]},{"name":"root","children":[10]},{"name":"scene","children":[11],"rotation":[0.707106769,0,0,-0.7071067],"scale":[1,1.00000012,1.00000012]}],"buffers":[{"uri":"ObicanKljuc.bin","byteLength":1024572}],"bufferViews":[{"buffer":0,"byteLength":178140,"target":34963},{"buffer":0,"byteLength":95472,"byteOffset":178140,"target":34963},{"buffer":0,"byteLength":366800,"byteOffset":273612,"byteStride":40,"target":34962},{"buffer":0,"byteLength":146720,"byteOffset":640412,"byteStride":16,"target":34962},{"buffer":0,"byteLength":169600,"byteOffset":787132,"byteStride":40,"target":34962},{"buffer":0,"byteLength":67840,"byteOffset":956732,"byteStride":16,"target":34962}],"accessors":[{"bufferView":2,"componentType":5126,"count":9170,"type":"VEC3","max":[2.065243,22.6153316,88.24564],"min":[-2.021704,-22.61532,-10.1837082]},{"bufferView":2,"componentType":5126,"count":9170,"type":"VEC3","byteOffset":12},{"bufferView":2,"componentType":5126,"count":9170,"type":"VEC4","byteOffset":24},{"bufferView":3,"componentType":5126,"count":9170,"type":"VEC2"},{"bufferView":3,"componentType":5126,"count":9170,"type":"VEC2","byteOffset":8},{"bufferView":0,"componentType":5125,"count":44535,"type":"SCALAR"},{"bufferView":4,"componentType":5126,"count":4240,"type":"VEC3","max":[27.6445351,0.48884964,4.835079],"min":[-14.2290459,-26.6910152,-36.3310051]},{"bufferView":4,"componentType":5126,"count":4240,"type":"VEC3","byteOffset":12},{"bufferView":4,"componentType":5126,"count":4240,"type":"VEC4","byteOffset":24},{"bufferView":5,"componentType":5126,"count":4240,"type":"VEC2"},{"bufferView":5,"componentType":5126,"count":4240,"type":"VEC2","byteOffset":8},{"bufferView":1,"componentType":5125,"count":23868,"type":"SCALAR"}],"images":[{"name":"default_baseColor.jpg","uri":"default_baseColor.jpg","mimeType":"image/jpeg"},{"name":"default_metallicRoughness.jpg","uri":"default_metallicRoughness.jpg","mimeType":"image/jpeg"},{"name":"default_normal.png","uri":"default_normal.png","mimeType":"image/png"}],"materials":[{"name":"default","pbrMetallicRoughness":{"baseColorTexture":{"index":0},"metallicRoughnessTexture":{"index":1}},"normalTexture":{"index":2},"doubleSided":true}],"meshes":[{"name":"Object_0","primitives":[{"attributes":{"POSITION":0,"NORMAL":1,"TANGENT":2,"TEXCOORD_0":3,"TEXCOORD_1":4},"indices":5,"material":0}]},{"name":"Object_1","primitives":[{"attributes":{"POSITION":6,"NORMAL":7,"TANGENT":8,"TEXCOORD_0":9,"TEXCOORD_1":10},"indices":11,"material":0}]}],"scene":0,"scenes":[{"name":"scene","nodes":[12]}],"textures":[{"source":0},{"source":1},{"source":2}]}