{
  "accessors": [
    {
      "bufferView": 2,
      "componentType": 5126,
      "count": 988,
      "max": [
        15.505061149597168,
        6.077666282653809,
        5.736606121063232
      ],
      "min": [
        -19.68258285522461,
        -7.506925106048584,
        -5.736604690551758
      ],
      "type": "VEC3"
    },
    {
      "bufferView": 2,
      "byteOffset": 11856,
      "componentType": 5126,
      "count": 988,
      "max": [
        1.0,
        1.0,
        1.0
      ],
      "min": [
        -1.0,
        -1.0,
        -1.0
      ],
      "type": "VEC3"
    },
    {
      "bufferView": 1,
      "componentType": 5126,
      "count": 988,
      "max": [
        0.9988141059875488,
        0.9990235567092896
      ],
      "min": [
        0.0009723973926156759,
        0.0009714854531921446
      ],
      "type": "VEC2"
    },
    {
      "bufferView": 0,
      "componentType": 5125,
      "count": 3426,
      "type": "SCALAR"
    },
    {
      "bufferView": 2,
      "byteOffset": 23712,
      "componentType": 5126,
      "count": 1898,
      "max": [
        2.2811598777770996,
        7.802759170532227,
        2.2811551094055176
      ],
      "min": [
        -2.281155824661255,
        -16.376951217651367,
        -2.2811598777770996
      ],
      "type": "VEC3"
    },
    {
      "bufferView": 2,
      "byteOffset": 46488,
      "componentType": 5126,
      "count": 1898,
      "max": [
        1.0,
        1.0,
        1.0
      ],
      "min": [
        -1.0,
        -1.0,
        -1.0
      ],
      "type": "VEC3"
    },
    {
      "bufferView": 1,
      "byteOffset": 7904,
      "componentType": 5126,
      "count": 1898,
      "max": [
        0.9990288615226746,
        0.9978139400482178
      ],
      "min": [
        0.0009706318378448486,
        0.0009708104771561921
      ],
      "type": "VEC2"
    },
    {
      "bufferView": 0,
      "byteOffset": 13704,
      "componentType": 5125,
      "count": 3852,
      "type": "SCALAR"
    },
    {
      "bufferView": 2,
      "byteOffset": 69264,
      "componentType": 5126,
      "count": 205,
      "max": [
        0.49747562408447266,
        0.49910104274749756,
        2.474442720413208
      ],
      "min": [
        -0.5010404586791992,
        -0.4994153082370758,
        -2.4744174480438232
      ],
      "type": "VEC3"
    },
    {
      "bufferView": 2,
      "byteOffset": 71724,
      "componentType": 5126,
      "count": 205,
      "max": [
        1.0,
        0.9951766133308411,
        0.9727949500083923
      ],
      "min": [
        -1.0,
        -0.9961191415786743,
        -0.9727948904037476
      ],
      "type": "VEC3"
    },
    {
      "bufferView": 1,
      "byteOffset": 23088,
      "componentType": 5126,
      "count": 205,
      "max": [
        0.6809020042419434,
        0.8100652694702148
      ],
      "min": [
        0.5832898020744324,
        0.6402174234390259
      ],
      "type": "VEC2"
    },
    {
      "bufferView": 0,
      "byteOffset": 29112,
      "componentType": 5125,
      "count": 576,
      "type": "SCALAR"
    },
    {
      "bufferView": 2,
      "byteOffset": 74184,
      "componentType": 5126,
      "count": 366,
      "max": [
        2.0825459957122803,
        0.7588343620300293,
        0.7588329315185547
      ],
      "min": [
        -7.403844356536865,
        -0.7588348388671875,
        -0.7588362693786621
      ],
      "type": "VEC3"
    },
    {
      "bufferView": 2,
      "byteOffset": 78576,
      "componentType": 5126,
      "count": 366,
      "max": [
        1.0,
        1.0,
        1.0
      ],
      "min": [
        -1.0,
        -1.0,
        -1.0
      ],
      "type": "VEC3"
    },
    {
      "bufferView": 1,
      "byteOffset": 24728,
      "componentType": 5126,
      "count": 366,
      "max": [
        0.9980871677398682,
        0.9989638328552246
      ],
      "min": [
        0.0009767456213012338,
        0.0009744763374328613
      ],
      "type": "VEC2"
    },
    {
      "bufferView": 0,
      "byteOffset": 31416,
      "componentType": 5125,
      "count": 1146,
      "type": "SCALAR"
    },
    {
      "bufferView": 3,
      "componentType": 5126,
      "count": 22,
      "max": [
        1.7083333730697632
      ],
      "min": [
        0.0416666679084301
      ],
      "type": "SCALAR"
    },
    {
      "bufferView": 4,
      "componentType": 5126,
      "count": 22,
      "max": [
        1.0,
        0.0,
        -0.0,
        1.0
      ],
      "min": [
        -0.9725530743598938,
        0.0,
        -0.0,
        7.549790126404332e-08
      ],
      "type": "VEC4"
    }
  ],
  "animations": [
    {
      "channels": [
        {
          "sampler": 0,
          "target": {
            "node": 7,
            "path": "rotation"
          }
        }
      ],
      "name": "Action",
      "samplers": [
        {
          "input": 16,
          "interpolation": "LINEAR",
          "output": 17
        }
      ]
    }
  ],
  "asset": {
    "extras": {
      "author": "DoobiDooba (https://sketchfab.com/DoobiDooba)",
      "license": "CC-BY-4.0 (http://creativecommons.org/licenses/by/4.0/)",
      "source": "https://sketchfab.com/3d-models/submarine-8239a2b80ffc4cef84362bed12dc5cd9",
      "title": "Submarine"
    },
    "generator": "Sketchfab-12.68.0",
    "version": "2.0"
  },
  "bufferViews": [
    {
      "buffer": 0,
      "byteLength": 36000,
      "name": "floatBufferViews",
      "target": 34963
    },
    {
      "buffer": 0,
      "byteLength": 27656,
      "byteOffset": 36000,
      "byteStride": 8,
      "name": "floatBufferViews",
      "target": 34962
    },
    {
      "buffer": 0,
      "byteLength": 82968,
      "byteOffset": 63656,
      "byteStride": 12,
      "name": "floatBufferViews",
      "target": 34962
    },
    {
      "buffer": 0,
      "byteLength": 88,
      "byteOffset": 146624,
      "name": "floatBufferViews"
    },
    {
      "buffer": 0,
      "byteLength": 352,
      "byteOffset": 146712,
      "byteStride": 16,
      "name": "floatBufferViews"
    }
  ],
  "buffers": [
    {
      "byteLength": 147064,
      "uri": "scene.bin"
    }
  ],
  "images": [
    {
      "uri": "textures/Submarine_color_baseColor.png"
    },
    {
      "uri": "textures/Bomb_baseColor.png"
    },
    {
      "uri": "textures/Metal_baseColor.png"
    }
  ],
  "materials": [
    {
      "doubleSided": true,
      "name": "Submarine_color",
      "pbrMetallicRoughness": {
        "baseColorTexture": {
          "index": 0
        }
      }
    },
    {
      "doubleSided": true,
      "name": "Bomb",
      "pbrMetallicRoughness": {
        "baseColorTexture": {
          "index": 1
        }
      }
    },
    {
      "doubleSided": true,
      "name": "Metal",
      "pbrMetallicRoughness": {
        "baseColorTexture": {
          "index": 2
        }
      }
    }
  ],
  "meshes": [
    {
      "name": "Object_0",
      "primitives": [
        {
          "attributes": {
            "NORMAL": 1,
            "POSITION": 0,
            "TEXCOORD_0": 2
          },
          "indices": 3,
          "material": 0,
          "mode": 4
        }
      ]
    },
    {
      "name": "Object_1",
      "primitives": [
        {
          "attributes": {
            "NORMAL": 5,
            "POSITION": 4,
            "TEXCOORD_0": 6
          },
          "indices": 7,
          "material": 1,
          "mode": 4
        }
      ]
    },
    {
      "name": "Object_2",
      "primitives": [
        {
          "attributes": {
            "NORMAL": 9,
            "POSITION": 8,
            "TEXCOORD_0": 10
          },
          "indices": 11,
          "material": 0,
          "mode": 4
        }
      ]
    },
    {
      "name": "Object_3",
      "primitives": [
        {
          "attributes": {
            "NORMAL": 13,
            "POSITION": 12,
            "TEXCOORD_0": 14
          },
          "indices": 15,
          "material": 2,
          "mode": 4
        }
      ]
    }
  ],
  "nodes": [
    {
      "children": [
        1
      ],
      "matrix": [
        1.0,
        0.0,
        0.0,
        0.0,
        0.0,
        2.220446049250313e-16,
        -1.0,
        0.0,
        0.0,
        1.0,
        2.220446049250313e-16,
        0.0,
        0.0,
        0.0,
        0.0,
        1.0
      ],
      "name": "Sketchfab_model"
    },
    {
      "children": [
        2
      ],
      "name": "root"
    },
    {
      "children": [
        3,
        5,
        7,
        9
      ],
      "matrix": [
        1.0,
        0.0,
        0.0,
        0.0,
        0.0,
        2.220446049250313e-16,
        1.0,
        0.0,
        0.0,
        -1.0,
        2.220446049250313e-16,
        0.0,
        0.0,
        0.0,
        0.0,
        1.0
      ],
      "name": "GLTF_SceneRootNode"
    },
    {
      "children": [
        4
      ],
      "matrix": [
        1.0,
        0.0,
        0.0,
        0.0,
        0.0,
        1.0,
        0.0,
        0.0,
        0.0,
        0.0,
        1.0,
        0.0,
        -1.2560628652572632,
        1.7702900171279907,
        0.026836683973670006,
        1.0
      ],
      "name": "Submarine_0"
    },
    {
      "mesh": 0,
      "name": "Object_4"
    },
    {
      "children": [
        6
      ],
      "matrix": [
        1.0,
        0.0,
        0.0,
        0.0,
        0.0,
        1.0,
        0.0,
        0.0,
        0.0,
        0.0,
        1.0,
        0.0,
        -2.844411611557007,
        16.376928329467773,
        -6.896904468536377,
        1.0
      ],
      "name": "Bomb_1"
    },
    {
      "mesh": 1,
      "name": "Object_6"
    },
    {
      "children": [
        8
      ],
      "name": "Submarine_propeller_2",
      "translation": [
        14.758330345153809,
        0.00013689817569684237,
        0.02682032808661461
      ]
    },
    {
      "mesh": 2,
      "name": "Object_8"
    },
    {
      "children": [
        10
      ],
      "matrix": [
        1.0,
        0.0,
        0.0,
        0.0,
        0.0,
        1.0,
        0.0,
        0.0,
        0.0,
        0.0,
        1.0,
        0.0,
        -2.8444008827209473,
        -2.630462586239446e-05,
        6.784521579742432,
        1.0
      ],
      "name": "Missile_3"
    },
    {
      "mesh": 3,
      "name": "Object_10"
    }
  ],
  "samplers": [
    {
      "magFilter": 9729,
      "minFilter": 9987,
      "wrapS": 10497,
      "wrapT": 10497
    }
  ],
  "scene": 0,
  "scenes": [
    {
      "name": "Sketchfab_Scene",
      "nodes": [
        0
      ]
    }
  ],
  "textures": [
    {
      "sampler": 0,
      "source": 0
    },
    {
      "sampler": 0,
      "source": 1
    },
    {
      "sampler": 0,
      "source": 2
    }
  ]
}
