{
  "accessors": [
    {
      "bufferView": 2,
      "componentType": 5126,
      "count": 559,
      "max": [
        0.9999997019767761,
        0.9999987483024597,
        1.0
      ],
      "min": [
        -0.9999990463256836,
        -0.9999994039535522,
        -1.0
      ],
      "type": "VEC3"
    },
    {
      "bufferView": 2,
      "byteOffset": 6708,
      "componentType": 5126,
      "count": 559,
      "max": [
        1.0,
        1.0,
        1.0
      ],
      "min": [
        -1.0,
        -1.0,
        -1.0
      ],
      "type": "VEC3"
    },
    {
      "bufferView": 1,
      "componentType": 5126,
      "count": 559,
      "max": [
        1.0000001192092896,
        1.0
      ],
      "min": [
        0.0,
        0.0
      ],
      "type": "VEC2"
    },
    {
      "bufferView": 0,
      "componentType": 5125,
      "count": 2880,
      "type": "SCALAR"
    },
    {
      "bufferView": 2,
      "byteOffset": 13416,
      "componentType": 5126,
      "count": 559,
      "max": [
        0.9999997019767761,
        0.9999987483024597,
        1.0
      ],
      "min": [
        -0.9999990463256836,
        -0.9999994039535522,
        -1.0
      ],
      "type": "VEC3"
    },
    {
      "bufferView": 2,
      "byteOffset": 20124,
      "componentType": 5126,
      "count": 559,
      "max": [
        1.0,
        1.0,
        1.0
      ],
      "min": [
        -1.0,
        -1.0,
        -1.0
      ],
      "type": "VEC3"
    },
    {
      "bufferView": 1,
      "byteOffset": 4472,
      "componentType": 5126,
      "count": 559,
      "max": [
        1.0000001192092896,
        1.0
      ],
      "min": [
        0.0,
        0.0
      ],
      "type": "VEC2"
    },
    {
      "bufferView": 0,
      "byteOffset": 11520,
      "componentType": 5125,
      "count": 2880,
      "type": "SCALAR"
    },
    {
      "bufferView": 2,
      "byteOffset": 26832,
      "componentType": 5126,
      "count": 4544,
      "max": [
        4.829855918884277,
        3.19905161857605,
        -2.017333507537842
      ],
      "min": [
        -4.830918788909912,
        -2.0006730556488037,
        -11.350274085998535
      ],
      "type": "VEC3"
    },
    {
      "bufferView": 2,
      "byteOffset": 81360,
      "componentType": 5126,
      "count": 4544,
      "max": [
        0.9995049238204956,
        0.9999997615814209,
        0.9970049262046814
      ],
      "min": [
        -0.9995683431625366,
        -0.9999964237213135,
        -0.9998269081115723
      ],
      "type": "VEC3"
    },
    {
      "bufferView": 1,
      "byteOffset": 8944,
      "componentType": 5126,
      "count": 4544,
      "max": [
        1.0000001192092896,
        1.0
      ],
      "min": [
        0.0,
        0.0
      ],
      "type": "VEC2"
    },
    {
      "bufferView": 0,
      "byteOffset": 23040,
      "componentType": 5125,
      "count": 24732,
      "type": "SCALAR"
    }
  ],
  "asset": {
    "extras": {
      "author": "Gabriel Sylar (https://sketchfab.com/ssylar)",
      "license": "CC-BY-4.0 (http://creativecommons.org/licenses/by/4.0/)",
      "source": "https://sketchfab.com/3d-models/squid-8ad9904e278948feb61e9db1bf399263",
      "title": "Squid"
    },
    "generator": "Sketchfab-12.67.0",
    "version": "2.0"
  },
  "bufferViews": [
    {
      "buffer": 0,
      "byteLength": 121968,
      "name": "floatBufferViews",
      "target": 34963
    },
    {
      "buffer": 0,
      "byteLength": 45296,
      "byteOffset": 121968,
      "byteStride": 8,
      "name": "floatBufferViews",
      "target": 34962
    },
    {
      "buffer": 0,
      "byteLength": 135888,
      "byteOffset": 167264,
      "byteStride": 12,
      "name": "floatBufferViews",
      "target": 34962
    }
  ],
  "buffers": [
    {
      "byteLength": 303152,
      "uri": "scene.bin"
    }
  ],
  "materials": [
    {
      "doubleSided": true,
      "name": "EyeBall",
      "pbrMetallicRoughness": {
        "baseColorFactor": [
          0.00322689,
          0.0,
          0.214033,
          1.0
        ],
        "metallicFactor": 0.0,
        "roughnessFactor": 0.9963911608286512
      }
    },
    {
      "doubleSided": true,
      "name": "Material.003",
      "pbrMetallicRoughness": {
        "baseColorFactor": [
          0.310811,
          0.0,
          0.0687483,
          1.0
        ],
        "metallicFactor": 0.0,
        "roughnessFactor": 0.9841145156196383
      }
    }
  ],
  "meshes": [
    {
      "name": "Eye_EyeBall_0",
      "primitives": [
        {
          "attributes": {
            "NORMAL": 1,
            "POSITION": 0,
            "TEXCOORD_0": 2
          },
          "indices": 3,
          "material": 0,
          "mode": 4
        }
      ]
    },
    {
      "name": "Eye.001_EyeBall_0",
      "primitives": [
        {
          "attributes": {
            "NORMAL": 5,
            "POSITION": 4,
            "TEXCOORD_0": 6
          },
          "indices": 7,
          "material": 0,
          "mode": 4
        }
      ]
    },
    {
      "name": "squid_Material.003_0",
      "primitives": [
        {
          "attributes": {
            "NORMAL": 9,
            "POSITION": 8,
            "TEXCOORD_0": 10
          },
          "indices": 11,
          "material": 1,
          "mode": 4
        }
      ]
    }
  ],
  "nodes": [
    {
      "children": [
        1
      ],
      "matrix": [
        1.0,
        0.0,
        0.0,
        0.0,
        0.0,
        2.220446049250313e-16,
        -1.0,
        0.0,
        0.0,
        1.0,
        2.220446049250313e-16,
        0.0,
        0.0,
        0.0,
        0.0,
        1.0
      ],
      "name": "Sketchfab_model"
    },
    {
      "children": [
        2
      ],
      "matrix": [
        0.009999999776482582,
        0.0,
        0.0,
        0.0,
        0.0,
        0.0,
        0.009999999776482582,
        0.0,
        0.0,
        -0.009999999776482582,
        0.0,
        0.0,
        0.0,
        0.0,
        0.0,
        1.0
      ],
      "name": "d14708448e4a4662804af4afa47c064d.fbx"
    },
    {
      "children": [
        3,
        5,
        7
      ],
      "name": "RootNode"
    },
    {
      "children": [
        4
      ],
      "matrix": [
        23.057270050048828,
        0.0,
        0.0,
        0.0,
        0.0,
        -3.7565061014748818e-06,
        -23.057270050048523,
        0.0,
        0.0,
        23.057270050048523,
        -3.7565061014748818e-06,
        0.0,
        88.40979766845703,
        40.417625427246094,
        40.0,
        1.0
      ],
      "name": "Eye"
    },
    {
      "mesh": 0,
      "name": "Eye_EyeBall_0"
    },
    {
      "children": [
        6
      ],
      "matrix": [
        23.057270050048828,
        0.0,
        0.0,
        0.0,
        -0.0,
        -3.7565061014748818e-06,
        -23.057270050048523,
        0.0,
        0.0,
        23.057270050048523,
        -3.7565061014748818e-06,
        0.0,
        -88.40979766845703,
        40.417625427246094,
        40.0,
        1.0
      ],
      "name": "Eye.001"
    },
    {
      "mesh": 1,
      "name": "Eye.001_EyeBall_0"
    },
    {
      "children": [
        8
      ],
      "matrix": [
        100.0,
        0.0,
        0.0,
        0.0,
        0.0,
        -1.629206793918314e-05,
        -99.99999999999868,
        0.0,
        0.0,
        99.99999999999868,
        -1.629206793918314e-05,
        0.0,
        0.0,
        587.9999389648438,
        0.0,
        1.0
      ],
      "name": "squid"
    },
    {
      "mesh": 2,
      "name": "squid_Material.003_0"
    }
  ],
  "scene": 0,
  "scenes": [
    {
      "name": "Sketchfab_Scene",
      "nodes": [
        0
      ]
    }
  ]
}
