{"asset":{"version":"2.0","generator":"Unity 6000.3.10f1 glTFast 6.19.0"},"nodes":[{"name":"Crowbar_07 - Default_0","mesh":0},{"name":"Crowbar_08 - Default_0","mesh":1},{"name":"Crowbar","children":[0,1],"translation":[0,0,1.081844E-06],"rotation":[8.146034E-08,0,0,1],"scale":[1,1,0.7326467]},{"name":"RootNode","children":[2]},{"name":"Crowbar.FBX","children":[3],"rotation":[0.7071068,0,0,0.7071068]},{"name":"scene","children":[4],"translation":[47.8270531,57.15074,-21.6438122],"rotation":[-0.392925262,-0.141571283,-0.30799067,0.854815245],"scale":[0.004264975,0.00426497543,0.004264975]}],"buffers":[{"uri":"pajser.bin","byteLength":21864}],"bufferViews":[{"buffer":0,"byteLength":3240,"target":34963},{"buffer":0,"byteLength":240,"byteOffset":3240,"target":34963},{"buffer":0,"byteLength":13880,"byteOffset":3480,"byteStride":40,"target":34962},{"buffer":0,"byteLength":2776,"byteOffset":17360,"byteStride":8,"target":34962},{"buffer":0,"byteLength":1440,"byteOffset":20136,"byteStride":40,"target":34962},{"buffer":0,"byteLength":288,"byteOffset":21576,"byteStride":8,"target":34962}],"accessors":[{"bufferView":2,"componentType":5126,"count":347,"type":"VEC3","max":[31.89181,583.7378,228.834778],"min":[-31.8918056,-461.4834,-49.6908646]},{"bufferView":2,"componentType":5126,"count":347,"type":"VEC3","byteOffset":12},{"bufferView":2,"componentType":5126,"count":347,"type":"VEC4","byteOffset":24},{"bufferView":3,"componentType":5126,"count":347,"type":"VEC2"},{"bufferView":0,"componentType":5125,"count":810,"type":"SCALAR"},{"bufferView":4,"componentType":5126,"count":36,"type":"VEC3","max":[28.0557137,388.942383,50.0000229],"min":[-28.0557137,-199.00415,-4.386902E-05]},{"bufferView":4,"componentType":5126,"count":36,"type":"VEC3","byteOffset":12},{"bufferView":4,"componentType":5126,"count":36,"type":"VEC4","byteOffset":24},{"bufferView":5,"componentType":5126,"count":36,"type":"VEC2"},{"bufferView":1,"componentType":5125,"count":60,"type":"SCALAR"}],"images":[{"name":"07_-_Default_baseColor.jpg","uri":"07_-_Default_baseColor.jpg","mimeType":"image/jpeg"},{"name":"07_-_Default_normal.png","uri":"07_-_Default_normal.png","mimeType":"image/png"},{"name":"08_-_Default_baseColor.jpg","uri":"08_-_Default_baseColor.jpg","mimeType":"image/jpeg"},{"name":"08_-_Default_normal.png","uri":"08_-_Default_normal.png","mimeType":"image/png"}],"materials":[{"name":"07_-_Default","pbrMetallicRoughness":{"roughnessFactor":0.7299924,"baseColorTexture":{"index":0}},"normalTexture":{"index":1},"doubleSided":true},{"name":"08_-_Default","pbrMetallicRoughness":{"baseColorFactor":[0.398056328,0.398056328,0.398056328,1],"roughnessFactor":0.892971337,"baseColorTexture":{"index":2}},"normalTexture":{"index":3},"doubleSided":true}],"meshes":[{"name":"Crowbar_07 - Default_0","primitives":[{"attributes":{"POSITION":0,"NORMAL":1,"TANGENT":2,"TEXCOORD_0":3},"indices":4,"material":0}]},{"name":"Crowbar_08 - Default_0","primitives":[{"attributes":{"POSITION":5,"NORMAL":6,"TANGENT":7,"TEXCOORD_0":8},"indices":9,"material":1}]}],"scene":0,"scenes":[{"name":"scene","nodes":[5]}],"textures":[{"source":0},{"source":1},{"source":2},{"source":3}]}