{"asset":{"version":"2.0","generator":"Unity 6000.3.10f1 glTFast 6.19.0"},"nodes":[{"name":"Eye_EyeBall_0","mesh":0},{"name":"Eye","children":[0],"translation":[88.4098,40.4176254,40],"rotation":[0.7071068,0,0,-0.707106769],"scale":[23.05727,23.05727,23.05727]},{"name":"Eye.001_EyeBall_0","mesh":1},{"name":"Eye.001","children":[2],"translation":[-88.4098,40.4176254,40],"rotation":[0.7071068,0,0,-0.707106769],"scale":[23.05727,23.05727,23.05727]},{"name":"squid_Material.003_0","mesh":2},{"name":"squid","children":[4],"translation":[0,587.999939,0],"rotation":[0.7071068,0,0,-0.707106769],"scale":[100,100,100]},{"name":"RootNode","children":[1,3,5]},{"name":"d14708448e4a4662804af4afa47c064d.fbx","children":[6],"rotation":[0.7071068,0,0,0.7071068],"scale":[0.01,0.01,0.01]},{"name":"scene","children":[7],"rotation":[0.707106769,0,0,-0.7071067],"scale":[1,1.00000012,1.00000012]}],"buffers":[{"uri":"squid.bin","byteLength":303152}],"bufferViews":[{"buffer":0,"byteLength":11520,"target":34963},{"buffer":0,"byteLength":11520,"byteOffset":11520,"target":34963},{"buffer":0,"byteLength":98928,"byteOffset":23040,"target":34963},{"buffer":0,"byteLength":13416,"byteOffset":121968,"byteStride":24,"target":34962},{"buffer":0,"byteLength":4472,"byteOffset":135384,"byteStride":8,"target":34962},{"buffer":0,"byteLength":13416,"byteOffset":139856,"byteStride":24,"target":34962},{"buffer":0,"byteLength":4472,"byteOffset":153272,"byteStride":8,"target":34962},{"buffer":0,"byteLength":109056,"byteOffset":157744,"byteStride":24,"target":34962},{"buffer":0,"byteLength":36352,"byteOffset":266800,"byteStride":8,"target":34962}],"accessors":[{"bufferView":5,"componentType":5126,"count":559,"type":"VEC3","max":[0.9999997,0.9999987,1],"min":[-0.9999991,-0.9999994,-1]},{"bufferView":5,"componentType":5126,"count":559,"type":"VEC3","byteOffset":12},{"bufferView":6,"componentType":5126,"count":559,"type":"VEC2"},{"bufferView":0,"componentType":5125,"count":2880,"type":"SCALAR"},{"bufferView":3,"componentType":5126,"count":559,"type":"VEC3","max":[0.9999997,0.9999987,1],"min":[-0.9999991,-0.9999994,-1]},{"bufferView":3,"componentType":5126,"count":559,"type":"VEC3","byteOffset":12},{"bufferView":4,"componentType":5126,"count":559,"type":"VEC2"},{"bufferView":1,"componentType":5125,"count":2880,"type":"SCALAR"},{"bufferView":7,"componentType":5126,"count":4544,"type":"VEC3","max":[4.829856,3.19905162,-2.017333],"min":[-4.83091831,-2.000673,-11.3502741]},{"bufferView":7,"componentType":5126,"count":4544,"type":"VEC3","byteOffset":12},{"bufferView":8,"componentType":5126,"count":4544,"type":"VEC2"},{"bufferView":2,"componentType":5125,"count":24732,"type":"SCALAR"}],"materials":[{"name":"EyeBall","pbrMetallicRoughness":{"baseColorFactor":[0.0032268865,0,0.214033,1],"metallicFactor":0,"roughnessFactor":0.9963912},"doubleSided":true},{"name":"Material.003","pbrMetallicRoughness":{"baseColorFactor":[0.310810983,0,0.0687482655,1],"metallicFactor":0,"roughnessFactor":0.9841145},"doubleSided":true}],"meshes":[{"name":"Eye_EyeBall_0","primitives":[{"attributes":{"POSITION":0,"NORMAL":1,"TEXCOORD_0":2},"indices":3,"material":0}]},{"name":"Eye.001_EyeBall_0","primitives":[{"attributes":{"POSITION":4,"NORMAL":5,"TEXCOORD_0":6},"indices":7,"material":0}]},{"name":"squid_Material.003_0","primitives":[{"attributes":{"POSITION":8,"NORMAL":9,"TEXCOORD_0":10},"indices":11,"material":1}]}],"scene":0,"scenes":[{"name":"scene","nodes":[8]}]}