{
  "accessors": [
    {
      "bufferView": 2,
      "componentType": 5126,
      "count": 4516,
      "max": [
        0.686455249786377,
        0.3524550497531891,
        0.17181257903575897
      ],
      "min": [
        -0.686455249786377,
        -0.3524550497531891,
        -0.16772523522377014
      ],
      "type": "VEC3"
    },
    {
      "bufferView": 2,
      "byteOffset": 54192,
      "componentType": 5126,
      "count": 4516,
      "max": [
        1.0,
        1.0,
        1.0
      ],
      "min": [
        -1.0,
        -1.0,
        -1.0
      ],
      "type": "VEC3"
    },
    {
      "bufferView": 1,
      "componentType": 5126,
      "count": 4516,
      "max": [
        1.0,
        0.9995800852775574
      ],
      "min": [
        1.268882443561381e-09,
        -9.635378717121057e-09
      ],
      "type": "VEC2"
    },
    {
      "bufferView": 0,
      "componentType": 5125,
      "count": 12468,
      "type": "SCALAR"
    },
    {
      "bufferView": 2,
      "byteOffset": 108384,
      "componentType": 5126,
      "count": 2002,
      "max": [
        0.679789125919342,
        0.336640328168869,
        0.11733956634998322
      ],
      "min": [
        -0.679789125919342,
        -0.336640328168869,
        -0.11616126447916031
      ],
      "type": "VEC3"
    },
    {
      "bufferView": 2,
      "byteOffset": 132408,
      "componentType": 5126,
      "count": 2002,
      "max": [
        1.0,
        1.0,
        1.0
      ],
      "min": [
        -1.0,
        -1.0,
        -1.0
      ],
      "type": "VEC3"
    },
    {
      "bufferView": 1,
      "byteOffset": 36128,
      "componentType": 5126,
      "count": 2002,
      "max": [
        0.9825924634933472,
        0.9872011542320251
      ],
      "min": [
        -2.1859403176449632e-09,
        2.4742734527904986e-09
      ],
      "type": "VEC2"
    },
    {
      "bufferView": 0,
      "byteOffset": 49872,
      "componentType": 5125,
      "count": 5457,
      "type": "SCALAR"
    },
    {
      "bufferView": 2,
      "byteOffset": 156432,
      "componentType": 5126,
      "count": 4540,
      "max": [
        0.686455249786377,
        0.3524550497531891,
        0.48200929164886475
      ],
      "min": [
        -0.686455249786377,
        -0.3524550497531891,
        -0.16772523522377014
      ],
      "type": "VEC3"
    },
    {
      "bufferView": 2,
      "byteOffset": 210912,
      "componentType": 5126,
      "count": 4540,
      "max": [
        1.0,
        1.0,
        1.0
      ],
      "min": [
        -1.0,
        -1.0,
        -1.0
      ],
      "type": "VEC3"
    },
    {
      "bufferView": 1,
      "byteOffset": 52144,
      "componentType": 5126,
      "count": 4540,
      "max": [
        0.9980288743972778,
        1.0000001192092896
      ],
      "min": [
        -4.4234904628126515e-09,
        -7.739417995367148e-09
      ],
      "type": "VEC2"
    },
    {
      "bufferView": 0,
      "byteOffset": 71700,
      "componentType": 5125,
      "count": 12468,
      "type": "SCALAR"
    },
    {
      "bufferView": 2,
      "byteOffset": 265392,
      "componentType": 5126,
      "count": 2002,
      "max": [
        0.679789125919342,
        0.336640328168869,
        0.4275362491607666
      ],
      "min": [
        -0.679789125919342,
        -0.336640328168869,
        0.19403521716594696
      ],
      "type": "VEC3"
    },
    {
      "bufferView": 2,
      "byteOffset": 289416,
      "componentType": 5126,
      "count": 2002,
      "max": [
        1.0,
        1.0,
        1.0
      ],
      "min": [
        -1.0,
        -1.0,
        -1.0
      ],
      "type": "VEC3"
    },
    {
      "bufferView": 1,
      "byteOffset": 88464,
      "componentType": 5126,
      "count": 2002,
      "max": [
        0.9903333783149719,
        0.9839991331100464
      ],
      "min": [
        -8.807345963646185e-09,
        -1.8144168834055563e-08
      ],
      "type": "VEC2"
    },
    {
      "bufferView": 0,
      "byteOffset": 121572,
      "componentType": 5125,
      "count": 5457,
      "type": "SCALAR"
    },
    {
      "bufferView": 2,
      "byteOffset": 313440,
      "componentType": 5126,
      "count": 3353,
      "max": [
        0.42267727851867676,
        0.3524550497531891,
        0.17181265354156494
      ],
      "min": [
        -0.42267727851867676,
        -0.3524550497531891,
        -0.16772523522377014
      ],
      "type": "VEC3"
    },
    {
      "bufferView": 2,
      "byteOffset": 353676,
      "componentType": 5126,
      "count": 3353,
      "max": [
        1.0,
        1.0,
        1.0
      ],
      "min": [
        -1.0,
        -1.0,
        -1.0
      ],
      "type": "VEC3"
    },
    {
      "bufferView": 1,
      "byteOffset": 104480,
      "componentType": 5126,
      "count": 3353,
      "max": [
        0.9940443634986877,
        0.9975332617759705
      ],
      "min": [
        -1.864860621481057e-08,
        -4.039250267595662e-09
      ],
      "type": "VEC2"
    },
    {
      "bufferView": 0,
      "byteOffset": 143400,
      "componentType": 5125,
      "count": 9384,
      "type": "SCALAR"
    },
    {
      "bufferView": 2,
      "byteOffset": 393912,
      "componentType": 5126,
      "count": 1406,
      "max": [
        0.41601115465164185,
        0.336640328168869,
        0.11733964085578918
      ],
      "min": [
        -0.41601115465164185,
        -0.336640328168869,
        -0.11616126447916031
      ],
      "type": "VEC3"
    },
    {
      "bufferView": 2,
      "byteOffset": 410784,
      "componentType": 5126,
      "count": 1406,
      "max": [
        1.0,
        1.0,
        1.0
      ],
      "min": [
        -1.0,
        -1.0,
        -1.0
      ],
      "type": "VEC3"
    },
    {
      "bufferView": 1,
      "byteOffset": 131304,
      "componentType": 5126,
      "count": 1406,
      "max": [
        1.0,
        0.995119035243988
      ],
      "min": [
        2.3938400151024553e-09,
        0.0
      ],
      "type": "VEC2"
    },
    {
      "bufferView": 0,
      "byteOffset": 180936,
      "componentType": 5125,
      "count": 3981,
      "type": "SCALAR"
    },
    {
      "bufferView": 2,
      "byteOffset": 427656,
      "componentType": 5126,
      "count": 3371,
      "max": [
        0.42267727851867676,
        0.41388139128685,
        0.9539936780929565
      ],
      "min": [
        -0.42267727851867676,
        -0.3524550497531891,
        0.0
      ],
      "type": "VEC3"
    },
    {
      "bufferView": 2,
      "byteOffset": 468108,
      "componentType": 5126,
      "count": 3371,
      "max": [
        1.0,
        1.0,
        1.0
      ],
      "min": [
        -1.0,
        -1.0,
        -1.0
      ],
      "type": "VEC3"
    },
    {
      "bufferView": 1,
      "byteOffset": 142552,
      "componentType": 5126,
      "count": 3371,
      "max": [
        0.9909495115280151,
        0.9932647943496704
      ],
      "min": [
        0.002140806056559086,
        0.0022821524180471897
      ],
      "type": "VEC2"
    },
    {
      "bufferView": 0,
      "byteOffset": 196860,
      "componentType": 5125,
      "count": 9402,
      "type": "SCALAR"
    },
    {
      "bufferView": 2,
      "byteOffset": 508560,
      "componentType": 5126,
      "count": 1450,
      "max": [
        0.41601115465164185,
        0.3594083786010742,
        0.9381790161132813
      ],
      "min": [
        -0.41601115465164185,
        -0.32836660742759705,
        0.05156397074460983
      ],
      "type": "VEC3"
    },
    {
      "bufferView": 2,
      "byteOffset": 525960,
      "componentType": 5126,
      "count": 1450,
      "max": [
        1.0,
        1.0,
        1.0
      ],
      "min": [
        -1.0,
        -1.0,
        -1.0
      ],
      "type": "VEC3"
    },
    {
      "bufferView": 1,
      "byteOffset": 169520,
      "componentType": 5126,
      "count": 1450,
      "max": [
        0.9955801367759705,
        0.997895359992981
      ],
      "min": [
        0.0031053577549755573,
        0.0025285000447183847
      ],
      "type": "VEC2"
    },
    {
      "bufferView": 0,
      "byteOffset": 234468,
      "componentType": 5125,
      "count": 3987,
      "type": "SCALAR"
    },
    {
      "bufferView": 2,
      "byteOffset": 543360,
      "componentType": 5126,
      "count": 4524,
      "max": [
        0.686455249786377,
        0.4138815999031067,
        0.9539936780929565
      ],
      "min": [
        -0.686455249786377,
        -0.3524550497531891,
        0.0
      ],
      "type": "VEC3"
    },
    {
      "bufferView": 2,
      "byteOffset": 597648,
      "componentType": 5126,
      "count": 4524,
      "max": [
        1.0,
        1.0,
        1.0
      ],
      "min": [
        -1.0,
        -1.0,
        -1.0
      ],
      "type": "VEC3"
    },
    {
      "bufferView": 1,
      "byteOffset": 181120,
      "componentType": 5126,
      "count": 4524,
      "max": [
        1.0,
        0.9985749125480652
      ],
      "min": [
        1.0505545322558874e-09,
        -1.3411693089437904e-08
      ],
      "type": "VEC2"
    },
    {
      "bufferView": 0,
      "byteOffset": 250416,
      "componentType": 5125,
      "count": 12474,
      "type": "SCALAR"
    },
    {
      "bufferView": 2,
      "byteOffset": 651936,
      "componentType": 5126,
      "count": 2002,
      "max": [
        0.679789125919342,
        0.3594086170196533,
        0.9381788969039917
      ],
      "min": [
        -0.679789125919342,
        -0.3283666670322418,
        0.05156397074460983
      ],
      "type": "VEC3"
    },
    {
      "bufferView": 2,
      "byteOffset": 675960,
      "componentType": 5126,
      "count": 2002,
      "max": [
        1.0,
        1.0,
        1.0
      ],
      "min": [
        -1.0,
        -1.0,
        -1.0
      ],
      "type": "VEC3"
    },
    {
      "bufferView": 1,
      "byteOffset": 217312,
      "componentType": 5126,
      "count": 2002,
      "max": [
        0.9921299815177917,
        0.9931786060333252
      ],
      "min": [
        -1.0797639227178024e-08,
        0.023060951381921768
      ],
      "type": "VEC2"
    },
    {
      "bufferView": 0,
      "byteOffset": 300312,
      "componentType": 5125,
      "count": 5460,
      "type": "SCALAR"
    },
    {
      "bufferView": 2,
      "byteOffset": 699984,
      "componentType": 5126,
      "count": 4516,
      "max": [
        0.686455249786377,
        0.41388142108917236,
        1.2641900777816772
      ],
      "min": [
        -0.686455249786377,
        -0.3524550497531891,
        0.0
      ],
      "type": "VEC3"
    },
    {
      "bufferView": 2,
      "byteOffset": 754176,
      "componentType": 5126,
      "count": 4516,
      "max": [
        1.0,
        1.0,
        1.0
      ],
      "min": [
        -1.0,
        -1.0,
        -1.0
      ],
      "type": "VEC3"
    },
    {
      "bufferView": 1,
      "byteOffset": 233328,
      "componentType": 5126,
      "count": 4516,
      "max": [
        0.9974963665008545,
        1.0
      ],
      "min": [
        -1.664779958332474e-08,
        -6.278367603584911e-09
      ],
      "type": "VEC2"
    },
    {
      "bufferView": 0,
      "byteOffset": 322152,
      "componentType": 5125,
      "count": 12306,
      "type": "SCALAR"
    },
    {
      "bufferView": 2,
      "byteOffset": 808368,
      "componentType": 5126,
      "count": 2014,
      "max": [
        0.679789125919342,
        0.3594083786010742,
        1.248375415802002
      ],
      "min": [
        -0.679789125919342,
        -0.3283666670322418,
        0.124657541513443
      ],
      "type": "VEC3"
    },
    {
      "bufferView": 2,
      "byteOffset": 832536,
      "componentType": 5126,
      "count": 2014,
      "max": [
        1.0,
        1.0,
        1.0
      ],
      "min": [
        -1.0,
        -1.0,
        -1.0
      ],
      "type": "VEC3"
    },
    {
      "bufferView": 1,
      "byteOffset": 269456,
      "componentType": 5126,
      "count": 2014,
      "max": [
        0.9974011182785034,
        0.9950851798057556
      ],
      "min": [
        3.497794942575183e-09,
        -1.1529941446042358e-09
      ],
      "type": "VEC2"
    },
    {
      "bufferView": 0,
      "byteOffset": 371376,
      "componentType": 5125,
      "count": 5484,
      "type": "SCALAR"
    },
    {
      "bufferView": 2,
      "byteOffset": 856704,
      "componentType": 5126,
      "count": 2186,
      "max": [
        0.42267727851867676,
        0.3498721122741699,
        0.24908369779586792
      ],
      "min": [
        -0.42267727851867676,
        -0.3550381660461426,
        0.0
      ],
      "type": "VEC3"
    },
    {
      "bufferView": 2,
      "byteOffset": 882936,
      "componentType": 5126,
      "count": 2186,
      "max": [
        1.0,
        1.0,
        1.0
      ],
      "min": [
        -1.0,
        -1.0,
        -1.0
      ],
      "type": "VEC3"
    },
    {
      "bufferView": 1,
      "byteOffset": 285568,
      "componentType": 5126,
      "count": 2186,
      "max": [
        0.9970484972000122,
        0.9992343187332153
      ],
      "min": [
        3.7224283655490353e-09,
        -1.017315121032425e-08
      ],
      "type": "VEC2"
    },
    {
      "bufferView": 0,
      "byteOffset": 393312,
      "componentType": 5125,
      "count": 6012,
      "type": "SCALAR"
    },
    {
      "bufferView": 2,
      "byteOffset": 909168,
      "componentType": 5126,
      "count": 876,
      "max": [
        0.41601115465164185,
        0.32578372955322266,
        0.2408258616924286
      ],
      "min": [
        -0.41601115465164185,
        -0.3309497833251953,
        0.05156397074460983
      ],
      "type": "VEC3"
    },
    {
      "bufferView": 2,
      "byteOffset": 919680,
      "componentType": 5126,
      "count": 876,
      "max": [
        0.9949520826339722,
        1.0,
        1.0
      ],
      "min": [
        -0.9949521422386169,
        -1.0,
        -0.9950509071350098
      ],
      "type": "VEC3"
    },
    {
      "bufferView": 1,
      "byteOffset": 303056,
      "componentType": 5126,
      "count": 876,
      "max": [
        0.9999999403953552,
        0.9610685706138611
      ],
      "min": [
        -2.331959514378923e-09,
        -1.8021724557115704e-08
      ],
      "type": "VEC2"
    },
    {
      "bufferView": 0,
      "byteOffset": 417360,
      "componentType": 5125,
      "count": 2394,
      "type": "SCALAR"
    },
    {
      "bufferView": 2,
      "byteOffset": 930192,
      "componentType": 5126,
      "count": 1198,
      "max": [
        0.422677218914032,
        0.35491085052490234,
        0.09045439958572388
      ],
      "min": [
        -0.42267733812332153,
        -0.34999942779541016,
        0.0
      ],
      "type": "VEC3"
    },
    {
      "bufferView": 2,
      "byteOffset": 944568,
      "componentType": 5126,
      "count": 1198,
      "max": [
        1.0,
        1.0,
        1.0
      ],
      "min": [
        -1.0,
        -1.0,
        -1.0
      ],
      "type": "VEC3"
    },
    {
      "bufferView": 1,
      "byteOffset": 310064,
      "componentType": 5126,
      "count": 1198,
      "max": [
        1.0,
        0.9974987506866455
      ],
      "min": [
        -1.8373297550056122e-08,
        -1.7870851465318083e-08
      ],
      "type": "VEC2"
    },
    {
      "bufferView": 0,
      "byteOffset": 426936,
      "componentType": 5125,
      "count": 3372,
      "type": "SCALAR"
    },
    {
      "bufferView": 2,
      "byteOffset": 958944,
      "componentType": 5126,
      "count": 549,
      "max": [
        0.3993019461631775,
        0.3390960693359375,
        0.17426490783691406
      ],
      "min": [
        -0.39930206537246704,
        -0.4338102340698242,
        0.05447298288345337
      ],
      "type": "VEC3"
    },
    {
      "bufferView": 2,
      "byteOffset": 965532,
      "componentType": 5126,
      "count": 549,
      "max": [
        1.0,
        1.0,
        1.0
      ],
      "min": [
        -1.0,
        -1.0,
        -1.0
      ],
      "type": "VEC3"
    },
    {
      "bufferView": 1,
      "byteOffset": 319648,
      "componentType": 5126,
      "count": 549,
      "max": [
        0.998490035533905,
        0.9974658489227295
      ],
      "min": [
        0.0,
        0.0475151389837265
      ],
      "type": "VEC2"
    },
    {
      "bufferView": 0,
      "byteOffset": 440424,
      "componentType": 5125,
      "count": 1593,
      "type": "SCALAR"
    },
    {
      "bufferView": 2,
      "byteOffset": 972120,
      "componentType": 5126,
      "count": 2787,
      "max": [
        0.6864532232284546,
        0.3524608612060547,
        0.24908369779586792
      ],
      "min": [
        -0.6864573955535889,
        -0.3524494171142578,
        0.0
      ],
      "type": "VEC3"
    },
    {
      "bufferView": 2,
      "byteOffset": 1005564,
      "componentType": 5126,
      "count": 2787,
      "max": [
        1.0,
        1.0,
        1.0
      ],
      "min": [
        -1.0,
        -1.0,
        -1.0
      ],
      "type": "VEC3"
    },
    {
      "bufferView": 1,
      "byteOffset": 324040,
      "componentType": 5126,
      "count": 2787,
      "max": [
        0.9922780394554138,
        1.0
      ],
      "min": [
        0.0,
        -8.599663203767705e-09
      ],
      "type": "VEC2"
    },
    {
      "bufferView": 0,
      "byteOffset": 446796,
      "componentType": 5125,
      "count": 7788,
      "type": "SCALAR"
    },
    {
      "bufferView": 2,
      "byteOffset": 1039008,
      "componentType": 5126,
      "count": 1177,
      "max": [
        0.6797870397567749,
        0.3283724784851074,
        0.2408258616924286
      ],
      "min": [
        -0.6797913312911987,
        -0.32836103439331055,
        0.051563963294029236
      ],
      "type": "VEC3"
    },
    {
      "bufferView": 2,
      "byteOffset": 1053132,
      "componentType": 5126,
      "count": 1177,
      "max": [
        0.9949521422386169,
        1.0,
        1.0
      ],
      "min": [
        -0.9949519038200378,
        -1.0,
        -0.9950513243675232
      ],
      "type": "VEC3"
    },
    {
      "bufferView": 1,
      "byteOffset": 346336,
      "componentType": 5126,
      "count": 1177,
      "max": [
        0.9562414884567261,
        0.995884358882904
      ],
      "min": [
        0.0,
        -7.567575011080407e-09
      ],
      "type": "VEC2"
    },
    {
      "bufferView": 0,
      "byteOffset": 477948,
      "componentType": 5125,
      "count": 3258,
      "type": "SCALAR"
    },
    {
      "bufferView": 2,
      "byteOffset": 1067256,
      "componentType": 5126,
      "count": 1745,
      "max": [
        0.6864534616470337,
        0.3559904098510742,
        0.09045445919036865
      ],
      "min": [
        -0.6864571571350098,
        -0.3489198684692383,
        0.0
      ],
      "type": "VEC3"
    },
    {
      "bufferView": 2,
      "byteOffset": 1088196,
      "componentType": 5126,
      "count": 1745,
      "max": [
        1.0,
        1.0,
        1.0
      ],
      "min": [
        -1.0,
        -1.0,
        -1.0
      ],
      "type": "VEC3"
    },
    {
      "bufferView": 1,
      "byteOffset": 355752,
      "componentType": 5126,
      "count": 1745,
      "max": [
        0.9888301491737366,
        1.0
      ],
      "min": [
        -3.2938856087127988e-09,
        -2.6973827615961454e-08
      ],
      "type": "VEC2"
    },
    {
      "bufferView": 0,
      "byteOffset": 490980,
      "componentType": 5125,
      "count": 4689,
      "type": "SCALAR"
    },
    {
      "bufferView": 2,
      "byteOffset": 1109136,
      "componentType": 5126,
      "count": 813,
      "max": [
        0.6630779504776001,
        0.3401756286621094,
        0.1742648482322693
      ],
      "min": [
        -0.6630818843841553,
        -0.43273067474365234,
        0.05447298288345337
      ],
      "type": "VEC3"
    },
    {
      "bufferView": 2,
      "byteOffset": 1118892,
      "componentType": 5126,
      "count": 813,
      "max": [
        1.0,
        1.0,
        1.0
      ],
      "min": [
        -1.0,
        -1.0,
        -1.0
      ],
      "type": "VEC3"
    },
    {
      "bufferView": 1,
      "byteOffset": 369712,
      "componentType": 5126,
      "count": 813,
      "max": [
        0.9753672480583191,
        0.9689246416091919
      ],
      "min": [
        -4.81489959014425e-09,
        -5.363939514779759e-09
      ],
      "type": "VEC2"
    },
    {
      "bufferView": 0,
      "byteOffset": 509736,
      "componentType": 5125,
      "count": 2196,
      "type": "SCALAR"
    },
    {
      "bufferView": 2,
      "byteOffset": 1128648,
      "componentType": 5126,
      "count": 2757,
      "max": [
        0.6864547729492188,
        0.3524332046508789,
        0.5592802166938782
      ],
      "min": [
        -0.6864557266235352,
        -0.3524770736694336,
        0.0
      ],
      "type": "VEC3"
    },
    {
      "bufferView": 2,
      "byteOffset": 1161732,
      "componentType": 5126,
      "count": 2757,
      "max": [
        1.0,
        1.0,
        1.0
      ],
      "min": [
        -1.0,
        -1.0,
        -1.0
      ],
      "type": "VEC3"
    },
    {
      "bufferView": 1,
      "byteOffset": 376216,
      "componentType": 5126,
      "count": 2757,
      "max": [
        0.9835996627807617,
        0.9999998807907104
      ],
      "min": [
        -5.338502262475231e-08,
        -7.72374608715154e-09
      ],
      "type": "VEC2"
    },
    {
      "bufferView": 0,
      "byteOffset": 518520,
      "componentType": 5125,
      "count": 7620,
      "type": "SCALAR"
    },
    {
      "bufferView": 2,
      "byteOffset": 1194816,
      "componentType": 5126,
      "count": 1127,
      "max": [
        0.6797885894775391,
        0.32834482192993164,
        0.5510223507881165
      ],
      "min": [
        -0.6797895431518555,
        -0.32838869094848633,
        0.124657541513443
      ],
      "type": "VEC3"
    },
    {
      "bufferView": 2,
      "byteOffset": 1208340,
      "componentType": 5126,
      "count": 1127,
      "max": [
        0.9930176734924316,
        1.0,
        1.0
      ],
      "min": [
        -0.9930180907249451,
        -1.0,
        -0.9950513243675232
      ],
      "type": "VEC3"
    },
    {
      "bufferView": 1,
      "byteOffset": 398272,
      "componentType": 5126,
      "count": 1127,
      "max": [
        0.9890265464782715,
        0.9797604084014893
      ],
      "min": [
        -1.4465959097265113e-08,
        -5.5968230050496e-09
      ],
      "type": "VEC2"
    },
    {
      "bufferView": 0,
      "byteOffset": 549000,
      "componentType": 5125,
      "count": 3258,
      "type": "SCALAR"
    },
    {
      "bufferView": 2,
      "byteOffset": 1221864,
      "componentType": 5126,
      "count": 1743,
      "max": [
        0.686450719833374,
        0.3559756278991699,
        0.09045445919036865
      ],
      "min": [
        -0.6864597797393799,
        -0.3489341735839844,
        0.0
      ],
      "type": "VEC3"
    },
    {
      "bufferView": 2,
      "byteOffset": 1242780,
      "componentType": 5126,
      "count": 1743,
      "max": [
        1.0,
        1.0,
        1.0
      ],
      "min": [
        -1.0,
        -1.0,
        -1.0
      ],
      "type": "VEC3"
    },
    {
      "bufferView": 1,
      "byteOffset": 407288,
      "componentType": 5126,
      "count": 1743,
      "max": [
        0.9974108934402466,
        1.0
      ],
      "min": [
        9.361626057691197e-13,
        -1.7105991290122802e-08
      ],
      "type": "VEC2"
    },
    {
      "bufferView": 0,
      "byteOffset": 562032,
      "componentType": 5125,
      "count": 4683,
      "type": "SCALAR"
    },
    {
      "bufferView": 2,
      "byteOffset": 1263696,
      "componentType": 5126,
      "count": 824,
      "max": [
        0.6630756855010986,
        0.3401608467102051,
        0.1742650270462036
      ],
      "min": [
        -0.6630845069885254,
        -0.43274497985839844,
        0.054473042488098145
      ],
      "type": "VEC3"
    },
    {
      "bufferView": 2,
      "byteOffset": 1273584,
      "componentType": 5126,
      "count": 824,
      "max": [
        1.0,
        1.0,
        1.0
      ],
      "min": [
        -1.0,
        -1.0,
        -1.0
      ],
      "type": "VEC3"
    },
    {
      "bufferView": 1,
      "byteOffset": 421232,
      "componentType": 5126,
      "count": 824,
      "max": [
        0.9850982427597046,
        0.9826187491416931
      ],
      "min": [
        0.0,
        -4.93150897895589e-09
      ],
      "type": "VEC2"
    },
    {
      "bufferView": 0,
      "byteOffset": 580764,
      "componentType": 5125,
      "count": 2211,
      "type": "SCALAR"
    }
  ],
  "asset": {
    "extras": {
      "author": "FreeMeshBase (https://sketchfab.com/FreeMeshBase)",
      "license": "CC-BY-4.0 (http://creativecommons.org/licenses/by/4.0/)",
      "source": "https://sketchfab.com/3d-models/fmb-military-crates-01-6151842ba74a4d23a48a25972eed181c",
      "title": "FMB_Military Crates_01"
    },
    "generator": "Sketchfab-16.8.0",
    "version": "2.0"
  },
  "bufferViews": [
    {
      "buffer": 0,
      "byteLength": 589608,
      "name": "floatBufferViews",
      "target": 34963
    },
    {
      "buffer": 0,
      "byteLength": 427824,
      "byteOffset": 589608,
      "byteStride": 8,
      "name": "floatBufferViews",
      "target": 34962
    },
    {
      "buffer": 0,
      "byteLength": 1283472,
      "byteOffset": 1017432,
      "byteStride": 12,
      "name": "floatBufferViews",
      "target": 34962
    }
  ],
  "buffers": [
    {
      "byteLength": 2300904,
      "uri": "scene.bin"
    }
  ],
  "materials": [
    {
      "doubleSided": true,
      "name": "M_Base_1",
      "pbrMetallicRoughness": {
        "baseColorFactor": [
          0.187511,
          0.187511,
          0.187513,
          1.0
        ],
        "metallicFactor": 0.0,
        "roughnessFactor": 0.26029279716124076
      }
    },
    {
      "doubleSided": true,
      "name": "M_Details",
      "pbrMetallicRoughness": {
        "baseColorFactor": [
          0.0302104,
          0.0302104,
          0.0302104,
          1.0
        ],
        "metallicFactor": 0.0,
        "roughnessFactor": 0.7392316142429877
      }
    }
  ],
  "meshes": [
    {
      "name": "FMB_Military Crates_01_02_M_Base_1_0",
      "primitives": [
        {
          "attributes": {
            "NORMAL": 1,
            "POSITION": 0,
            "TEXCOORD_0": 2
          },
          "indices": 3,
          "material": 0,
          "mode": 4
        }
      ]
    },
    {
      "name": "FMB_Military Crates_01_02_M_Details_0",
      "primitives": [
        {
          "attributes": {
            "NORMAL": 5,
            "POSITION": 4,
            "TEXCOORD_0": 6
          },
          "indices": 7,
          "material": 1,
          "mode": 4
        }
      ]
    },
    {
      "name": "FMB_Military Crates_01_03_M_Base_1_0",
      "primitives": [
        {
          "attributes": {
            "NORMAL": 9,
            "POSITION": 8,
            "TEXCOORD_0": 10
          },
          "indices": 11,
          "material": 0,
          "mode": 4
        }
      ]
    },
    {
      "name": "FMB_Military Crates_01_03_M_Details_0",
      "primitives": [
        {
          "attributes": {
            "NORMAL": 13,
            "POSITION": 12,
            "TEXCOORD_0": 14
          },
          "indices": 15,
          "material": 1,
          "mode": 4
        }
      ]
    },
    {
      "name": "FMB_Military Crates_01_01_M_Base_1_0",
      "primitives": [
        {
          "attributes": {
            "NORMAL": 17,
            "POSITION": 16,
            "TEXCOORD_0": 18
          },
          "indices": 19,
          "material": 0,
          "mode": 4
        }
      ]
    },
    {
      "name": "FMB_Military Crates_01_01_M_Details_0",
      "primitives": [
        {
          "attributes": {
            "NORMAL": 21,
            "POSITION": 20,
            "TEXCOORD_0": 22
          },
          "indices": 23,
          "material": 1,
          "mode": 4
        }
      ]
    },
    {
      "name": "FMB_Military Crates_01_01_1_M_Base_1_0",
      "primitives": [
        {
          "attributes": {
            "NORMAL": 25,
            "POSITION": 24,
            "TEXCOORD_0": 26
          },
          "indices": 27,
          "material": 0,
          "mode": 4
        }
      ]
    },
    {
      "name": "FMB_Military Crates_01_01_1_M_Details_0",
      "primitives": [
        {
          "attributes": {
            "NORMAL": 29,
            "POSITION": 28,
            "TEXCOORD_0": 30
          },
          "indices": 31,
          "material": 1,
          "mode": 4
        }
      ]
    },
    {
      "name": "FMB_Military Crates_01_02_1_M_Base_1_0",
      "primitives": [
        {
          "attributes": {
            "NORMAL": 33,
            "POSITION": 32,
            "TEXCOORD_0": 34
          },
          "indices": 35,
          "material": 0,
          "mode": 4
        }
      ]
    },
    {
      "name": "FMB_Military Crates_01_02_1_M_Details_0",
      "primitives": [
        {
          "attributes": {
            "NORMAL": 37,
            "POSITION": 36,
            "TEXCOORD_0": 38
          },
          "indices": 39,
          "material": 1,
          "mode": 4
        }
      ]
    },
    {
      "name": "FMB_Military Crates_01_03_1_M_Base_1_0",
      "primitives": [
        {
          "attributes": {
            "NORMAL": 41,
            "POSITION": 40,
            "TEXCOORD_0": 42
          },
          "indices": 43,
          "material": 0,
          "mode": 4
        }
      ]
    },
    {
      "name": "FMB_Military Crates_01_03_1_M_Details_0",
      "primitives": [
        {
          "attributes": {
            "NORMAL": 45,
            "POSITION": 44,
            "TEXCOORD_0": 46
          },
          "indices": 47,
          "material": 1,
          "mode": 4
        }
      ]
    },
    {
      "name": "FMB_Military Crates_01_01_2_M_Base_1_0",
      "primitives": [
        {
          "attributes": {
            "NORMAL": 49,
            "POSITION": 48,
            "TEXCOORD_0": 50
          },
          "indices": 51,
          "material": 0,
          "mode": 4
        }
      ]
    },
    {
      "name": "FMB_Military Crates_01_01_2_M_Details_0",
      "primitives": [
        {
          "attributes": {
            "NORMAL": 53,
            "POSITION": 52,
            "TEXCOORD_0": 54
          },
          "indices": 55,
          "material": 1,
          "mode": 4
        }
      ]
    },
    {
      "name": "FMB_Military Crates_01_01_3_M_Base_1_0",
      "primitives": [
        {
          "attributes": {
            "NORMAL": 57,
            "POSITION": 56,
            "TEXCOORD_0": 58
          },
          "indices": 59,
          "material": 0,
          "mode": 4
        }
      ]
    },
    {
      "name": "FMB_Military Crates_01_01_3_M_Details_0",
      "primitives": [
        {
          "attributes": {
            "NORMAL": 61,
            "POSITION": 60,
            "TEXCOORD_0": 62
          },
          "indices": 63,
          "material": 1,
          "mode": 4
        }
      ]
    },
    {
      "name": "FMB_Military Crates_01_02_2_M_Base_1_0",
      "primitives": [
        {
          "attributes": {
            "NORMAL": 65,
            "POSITION": 64,
            "TEXCOORD_0": 66
          },
          "indices": 67,
          "material": 0,
          "mode": 4
        }
      ]
    },
    {
      "name": "FMB_Military Crates_01_02_2_M_Details_0",
      "primitives": [
        {
          "attributes": {
            "NORMAL": 69,
            "POSITION": 68,
            "TEXCOORD_0": 70
          },
          "indices": 71,
          "material": 1,
          "mode": 4
        }
      ]
    },
    {
      "name": "FMB_Military Crates_01_02_3_M_Base_1_0",
      "primitives": [
        {
          "attributes": {
            "NORMAL": 73,
            "POSITION": 72,
            "TEXCOORD_0": 74
          },
          "indices": 75,
          "material": 0,
          "mode": 4
        }
      ]
    },
    {
      "name": "FMB_Military Crates_01_02_3_M_Details_0",
      "primitives": [
        {
          "attributes": {
            "NORMAL": 77,
            "POSITION": 76,
            "TEXCOORD_0": 78
          },
          "indices": 79,
          "material": 1,
          "mode": 4
        }
      ]
    },
    {
      "name": "FMB_Military Crates_01_03_2_M_Base_1_0",
      "primitives": [
        {
          "attributes": {
            "NORMAL": 81,
            "POSITION": 80,
            "TEXCOORD_0": 82
          },
          "indices": 83,
          "material": 0,
          "mode": 4
        }
      ]
    },
    {
      "name": "FMB_Military Crates_01_03_2_M_Details_0",
      "primitives": [
        {
          "attributes": {
            "NORMAL": 85,
            "POSITION": 84,
            "TEXCOORD_0": 86
          },
          "indices": 87,
          "material": 1,
          "mode": 4
        }
      ]
    },
    {
      "name": "FMB_Military Crates_01_03_3_M_Base_1_0",
      "primitives": [
        {
          "attributes": {
            "NORMAL": 89,
            "POSITION": 88,
            "TEXCOORD_0": 90
          },
          "indices": 91,
          "material": 0,
          "mode": 4
        }
      ]
    },
    {
      "name": "FMB_Military Crates_01_03_3_M_Details_0",
      "primitives": [
        {
          "attributes": {
            "NORMAL": 93,
            "POSITION": 92,
            "TEXCOORD_0": 94
          },
          "indices": 95,
          "material": 1,
          "mode": 4
        }
      ]
    }
  ],
  "nodes": [
    {
      "children": [
        1
      ],
      "matrix": [
        1.0,
        0.0,
        0.0,
        0.0,
        0.0,
        2.220446049250313e-16,
        -1.0,
        0.0,
        0.0,
        1.0,
        2.220446049250313e-16,
        0.0,
        0.0,
        0.0,
        0.0,
        1.0
      ],
      "name": "Sketchfab_model"
    },
    {
      "children": [
        2
      ],
      "matrix": [
        0.009999999776482582,
        0.0,
        0.0,
        0.0,
        0.0,
        0.0,
        0.009999999776482582,
        0.0,
        0.0,
        -0.009999999776482582,
        0.0,
        0.0,
        0.0,
        0.0,
        0.0,
        1.0
      ],
      "name": "d16d8d3568dc4c52bff455c64ddd94c3.fbx"
    },
    {
      "children": [
        3,
        6,
        9,
        12,
        15,
        18,
        21,
        24,
        27,
        30,
        33,
        36
      ],
      "name": "RootNode"
    },
    {
      "children": [
        4,
        5
      ],
      "matrix": [
        100.0,
        0.0,
        0.0,
        0.0,
        0.0,
        -1.629206793918314e-05,
        -99.99999999999868,
        0.0,
        0.0,
        99.99999999999868,
        -1.629206793918314e-05,
        0.0,
        181.18179321289063,
        15.782615661621094,
        543.8093872070313,
        1.0
      ],
      "name": "FMB_Military Crates_01_02"
    },
    {
      "mesh": 0,
      "name": "FMB_Military Crates_01_02_M_Base_1_0"
    },
    {
      "mesh": 1,
      "name": "FMB_Military Crates_01_02_M_Details_0"
    },
    {
      "children": [
        7,
        8
      ],
      "matrix": [
        100.0,
        0.0,
        0.0,
        0.0,
        0.0,
        -1.629206793918314e-05,
        -99.99999999999868,
        0.0,
        0.0,
        99.99999999999868,
        -1.629206793918314e-05,
        0.0,
        363.4690246582031,
        15.782615661621094,
        543.8093872070313,
        1.0
      ],
      "name": "FMB_Military Crates_01_03"
    },
    {
      "mesh": 2,
      "name": "FMB_Military Crates_01_03_M_Base_1_0"
    },
    {
      "mesh": 3,
      "name": "FMB_Military Crates_01_03_M_Details_0"
    },
    {
      "children": [
        10,
        11
      ],
      "matrix": [
        100.0,
        0.0,
        0.0,
        0.0,
        0.0,
        -1.629206793918314e-05,
        -99.99999999999868,
        0.0,
        0.0,
        99.99999999999868,
        -1.629206793918314e-05,
        0.0,
        15.161907196044922,
        15.782615661621094,
        543.8093872070313,
        1.0
      ],
      "name": "FMB_Military Crates_01_01"
    },
    {
      "mesh": 4,
      "name": "FMB_Military Crates_01_01_M_Base_1_0"
    },
    {
      "mesh": 5,
      "name": "FMB_Military Crates_01_01_M_Details_0"
    },
    {
      "children": [
        13,
        14
      ],
      "matrix": [
        100.0,
        0.0,
        0.0,
        0.0,
        0.0,
        -1.629206793918314e-05,
        -99.99999999999868,
        0.0,
        0.0,
        99.99999999999868,
        -1.629206793918314e-05,
        0.0,
        15.161907196044922,
        -0.98990797996521,
        431.56427001953125,
        1.0
      ],
      "name": "FMB_Military Crates_01_01_1"
    },
    {
      "mesh": 6,
      "name": "FMB_Military Crates_01_01_1_M_Base_1_0"
    },
    {
      "mesh": 7,
      "name": "FMB_Military Crates_01_01_1_M_Details_0"
    },
    {
      "children": [
        16,
        17
      ],
      "matrix": [
        100.0,
        0.0,
        0.0,
        0.0,
        0.0,
        -1.629206793918314e-05,
        -99.99999999999868,
        0.0,
        0.0,
        99.99999999999868,
        -1.629206793918314e-05,
        0.0,
        181.18179321289063,
        -0.98990797996521,
        431.56427001953125,
        1.0
      ],
      "name": "FMB_Military Crates_01_02_1"
    },
    {
      "mesh": 8,
      "name": "FMB_Military Crates_01_02_1_M_Base_1_0"
    },
    {
      "mesh": 9,
      "name": "FMB_Military Crates_01_02_1_M_Details_0"
    },
    {
      "children": [
        19,
        20
      ],
      "matrix": [
        100.0,
        0.0,
        0.0,
        0.0,
        0.0,
        -1.629206793918314e-05,
        -99.99999999999868,
        0.0,
        0.0,
        99.99999999999868,
        -1.629206793918314e-05,
        0.0,
        363.4690246582031,
        -0.98990797996521,
        431.56427001953125,
        1.0
      ],
      "name": "FMB_Military Crates_01_03_1"
    },
    {
      "mesh": 10,
      "name": "FMB_Military Crates_01_03_1_M_Base_1_0"
    },
    {
      "mesh": 11,
      "name": "FMB_Military Crates_01_03_1_M_Details_0"
    },
    {
      "children": [
        22,
        23
      ],
      "matrix": [
        100.0,
        0.0,
        0.0,
        0.0,
        0.0,
        -1.629206793918314e-05,
        -99.99999999999868,
        0.0,
        0.0,
        99.99999999999868,
        -1.629206793918314e-05,
        0.0,
        610.9380493164063,
        -0.98990797996521,
        430.1366882324219,
        1.0
      ],
      "name": "FMB_Military Crates_01_01_2"
    },
    {
      "mesh": 12,
      "name": "FMB_Military Crates_01_01_2_M_Base_1_0"
    },
    {
      "mesh": 13,
      "name": "FMB_Military Crates_01_01_2_M_Details_0"
    },
    {
      "children": [
        25,
        26
      ],
      "matrix": [
        100.0,
        0.0,
        0.0,
        0.0,
        0.0,
        -1.629206793918314e-05,
        -99.99999999999868,
        0.0,
        0.0,
        99.99999999999868,
        -1.629206793918314e-05,
        0.0,
        610.9380493164063,
        0.0,
        535.0748291015625,
        1.0
      ],
      "name": "FMB_Military Crates_01_01_3"
    },
    {
      "mesh": 14,
      "name": "FMB_Military Crates_01_01_3_M_Base_1_0"
    },
    {
      "mesh": 15,
      "name": "FMB_Military Crates_01_01_3_M_Details_0"
    },
    {
      "children": [
        28,
        29
      ],
      "matrix": [
        100.0,
        0.0,
        0.0,
        0.0,
        0.0,
        -1.629206793918314e-05,
        -99.99999999999868,
        0.0,
        0.0,
        99.99999999999868,
        -1.629206793918314e-05,
        0.0,
        786.6680908203125,
        -0.98990797996521,
        430.1366882324219,
        1.0
      ],
      "name": "FMB_Military Crates_01_02_2"
    },
    {
      "mesh": 16,
      "name": "FMB_Military Crates_01_02_2_M_Base_1_0"
    },
    {
      "mesh": 17,
      "name": "FMB_Military Crates_01_02_2_M_Details_0"
    },
    {
      "children": [
        31,
        32
      ],
      "matrix": [
        100.0,
        0.0,
        0.0,
        0.0,
        0.0,
        -1.629206793918314e-05,
        -99.99999999999868,
        0.0,
        0.0,
        99.99999999999868,
        -1.629206793918314e-05,
        0.0,
        786.6680908203125,
        0.0,
        535.0748291015625,
        1.0
      ],
      "name": "FMB_Military Crates_01_02_3"
    },
    {
      "mesh": 18,
      "name": "FMB_Military Crates_01_02_3_M_Base_1_0"
    },
    {
      "mesh": 19,
      "name": "FMB_Military Crates_01_02_3_M_Details_0"
    },
    {
      "children": [
        34,
        35
      ],
      "matrix": [
        100.0,
        0.0,
        0.0,
        0.0,
        0.0,
        -1.629206793918314e-05,
        -99.99999999999868,
        0.0,
        0.0,
        99.99999999999868,
        -1.629206793918314e-05,
        0.0,
        959.2451782226563,
        -0.98990797996521,
        430.1366882324219,
        1.0
      ],
      "name": "FMB_Military Crates_01_03_2"
    },
    {
      "mesh": 20,
      "name": "FMB_Military Crates_01_03_2_M_Base_1_0"
    },
    {
      "mesh": 21,
      "name": "FMB_Military Crates_01_03_2_M_Details_0"
    },
    {
      "children": [
        37,
        38
      ],
      "matrix": [
        100.0,
        0.0,
        0.0,
        0.0,
        0.0,
        -1.629206793918314e-05,
        -99.99999999999868,
        0.0,
        0.0,
        99.99999999999868,
        -1.629206793918314e-05,
        0.0,
        959.24560546875,
        0.0,
        535.0748291015625,
        1.0
      ],
      "name": "FMB_Military Crates_01_03_3"
    },
    {
      "mesh": 22,
      "name": "FMB_Military Crates_01_03_3_M_Base_1_0"
    },
    {
      "mesh": 23,
      "name": "FMB_Military Crates_01_03_3_M_Details_0"
    }
  ],
  "scene": 0,
  "scenes": [
    {
      "name": "Sketchfab_Scene",
      "nodes": [
        0
      ]
    }
  ]
}
