{"asset":{"version":"2.0","generator":"Unity 6000.3.10f1 glTFast 6.19.0"},"nodes":[{"name":"FMB_Military Crates_01_02_M_Base_1_0","mesh":0},{"name":"FMB_Military Crates_01_02_M_Details_0","mesh":1},{"name":"FMB_Military Crates_01_02","children":[0,1],"translation":[181.1818,15.7826157,543.8094],"rotation":[0.7071068,0,0,-0.707106769],"scale":[100,100,100]},{"name":"FMB_Military Crates_01_03_M_Base_1_0","mesh":2},{"name":"FMB_Military Crates_01_03_M_Details_0","mesh":3},{"name":"FMB_Military Crates_01_03","children":[3,4],"translation":[363.469025,15.7826157,543.8094],"rotation":[0.7071068,0,0,-0.707106769],"scale":[100,100,100]},{"name":"FMB_Military Crates_01_01_M_Base_1_0","mesh":4},{"name":"FMB_Military Crates_01_01_M_Details_0","mesh":5},{"name":"FMB_Military Crates_01_01","children":[6,7],"translation":[15.1619072,15.7826157,543.8094],"rotation":[0.7071068,0,0,-0.707106769],"scale":[100,100,100]},{"name":"FMB_Military Crates_01_01_1_M_Base_1_0","mesh":6},{"name":"FMB_Military Crates_01_01_1_M_Details_0","mesh":7},{"name":"FMB_Military Crates_01_01_1","children":[9,10],"translation":[15.1619072,-0.989908,431.56427],"rotation":[0.7071068,0,0,-0.707106769],"scale":[100,100,100]},{"name":"FMB_Military Crates_01_02_1_M_Base_1_0","mesh":8},{"name":"FMB_Military Crates_01_02_1_M_Details_0","mesh":9},{"name":"FMB_Military Crates_01_02_1","children":[12,13],"translation":[181.1818,-0.989908,431.56427],"rotation":[0.7071068,0,0,-0.707106769],"scale":[100,100,100]},{"name":"FMB_Military Crates_01_03_1_M_Base_1_0","mesh":10},{"name":"FMB_Military Crates_01_03_1_M_Details_0","mesh":11},{"name":"FMB_Military Crates_01_03_1","children":[15,16],"translation":[363.469025,-0.989908,431.56427],"rotation":[0.7071068,0,0,-0.707106769],"scale":[100,100,100]},{"name":"FMB_Military Crates_01_01_2_M_Base_1_0","mesh":12},{"name":"FMB_Military Crates_01_01_2_M_Details_0","mesh":13},{"name":"FMB_Military Crates_01_01_2","children":[18,19],"translation":[610.938049,-0.989908,430.1367],"rotation":[0.7071068,0,0,-0.707106769],"scale":[100,100,100]},{"name":"FMB_Military Crates_01_01_3_M_Base_1_0","mesh":14},{"name":"FMB_Military Crates_01_01_3_M_Details_0","mesh":15},{"name":"FMB_Military Crates_01_01_3","children":[21,22],"translation":[610.938049,0,535.0748],"rotation":[0.7071068,0,0,-0.707106769],"scale":[100,100,100]},{"name":"FMB_Military Crates_01_02_2_M_Base_1_0","mesh":16},{"name":"FMB_Military Crates_01_02_2_M_Details_0","mesh":17},{"name":"FMB_Military Crates_01_02_2","children":[24,25],"translation":[786.6681,-0.989908,430.1367],"rotation":[0.7071068,0,0,-0.707106769],"scale":[100,100,100]},{"name":"FMB_Military Crates_01_02_3_M_Base_1_0","mesh":18},{"name":"FMB_Military Crates_01_02_3_M_Details_0","mesh":19},{"name":"FMB_Military Crates_01_02_3","children":[27,28],"translation":[786.6681,0,535.0748],"rotation":[0.7071068,0,0,-0.707106769],"scale":[100,100,100]},{"name":"FMB_Military Crates_01_03_2_M_Base_1_0","mesh":20},{"name":"FMB_Military Crates_01_03_2_M_Details_0","mesh":21},{"name":"FMB_Military Crates_01_03_2","children":[30,31],"translation":[959.2452,-0.989908,430.1367],"rotation":[0.7071068,0,0,-0.707106769],"scale":[100,100,100]},{"name":"FMB_Military Crates_01_03_3_M_Base_1_0","mesh":22},{"name":"FMB_Military Crates_01_03_3_M_Details_0","mesh":23},{"name":"FMB_Military Crates_01_03_3","children":[33,34],"translation":[959.2456,0,535.0748],"rotation":[0.7071068,0,0,-0.707106769],"scale":[100,100,100]},{"name":"RootNode","children":[2,5,8,11,14,17,20,23,26,29,32,35]},{"name":"d16d8d3568dc4c52bff455c64ddd94c3.fbx","children":[36],"rotation":[0.7071068,0,0,0.7071068],"scale":[0.01,0.01,0.01]},{"name":"scene","children":[37],"rotation":[0.707106769,0,0,-0.7071067],"scale":[1,1.00000012,1.00000012]}],"buffers":[{"uri":"pajser.bin","byteLength":2300904}],"bufferViews":[{"buffer":0,"byteLength":49872,"target":34963},{"buffer":0,"byteLength":21828,"byteOffset":49872,"target":34963},{"buffer":0,"byteLength":49872,"byteOffset":71700,"target":34963},{"buffer":0,"byteLength":21828,"byteOffset":121572,"target":34963},{"buffer":0,"byteLength":37536,"byteOffset":143400,"target":34963},{"buffer":0,"byteLength":15924,"byteOffset":180936,"target":34963},{"buffer":0,"byteLength":37608,"byteOffset":196860,"target":34963},{"buffer":0,"byteLength":15948,"byteOffset":234468,"target":34963},{"buffer":0,"byteLength":49896,"byteOffset":250416,"target":34963},{"buffer":0,"byteLength":21840,"byteOffset":300312,"target":34963},{"buffer":0,"byteLength":49224,"byteOffset":322152,"target":34963},{"buffer":0,"byteLength":21936,"byteOffset":371376,"target":34963},{"buffer":0,"byteLength":24048,"byteOffset":393312,"target":34963},{"buffer":0,"byteLength":9576,"byteOffset":417360,"target":34963},{"buffer":0,"byteLength":13488,"byteOffset":426936,"target":34963},{"buffer":0,"byteLength":6372,"byteOffset":440424,"target":34963},{"buffer":0,"byteLength":31152,"byteOffset":446796,"target":34963},{"buffer":0,"byteLength":13032,"byteOffset":477948,"target":34963},{"buffer":0,"byteLength":18756,"byteOffset":490980,"target":34963},{"buffer":0,"byteLength":8784,"byteOffset":509736,"target":34963},{"buffer":0,"byteLength":30480,"byteOffset":518520,"target":34963},{"buffer":0,"byteLength":13032,"byteOffset":549000,"target":34963},{"buffer":0,"byteLength":18732,"byteOffset":562032,"target":34963},{"buffer":0,"byteLength":8844,"byteOffset":580764,"target":34963},{"buffer":0,"byteLength":19776,"byteOffset":589608,"byteStride":24,"target":34962},{"buffer":0,"byteLength":6592,"byteOffset":609384,"byteStride":8,"target":34962},{"buffer":0,"byteLength":108384,"byteOffset":615976,"byteStride":24,"target":34962},{"buffer":0,"byteLength":36128,"byteOffset":724360,"byteStride":8,"target":34962},{"buffer":0,"byteLength":48048,"byteOffset":760488,"byteStride":24,"target":34962},{"buffer":0,"byteLength":16016,"byteOffset":808536,"byteStride":8,"target":34962},{"buffer":0,"byteLength":108960,"byteOffset":824552,"byteStride":24,"target":34962},{"buffer":0,"byteLength":36320,"byteOffset":933512,"byteStride":8,"target":34962},{"buffer":0,"byteLength":48048,"byteOffset":969832,"byteStride":24,"target":34962},{"buffer":0,"byteLength":16016,"byteOffset":1017880,"byteStride":8,"target":34962},{"buffer":0,"byteLength":80472,"byteOffset":1033896,"byteStride":24,"target":34962},{"buffer":0,"byteLength":26824,"byteOffset":1114368,"byteStride":8,"target":34962},{"buffer":0,"byteLength":33744,"byteOffset":1141192,"byteStride":24,"target":34962},{"buffer":0,"byteLength":11248,"byteOffset":1174936,"byteStride":8,"target":34962},{"buffer":0,"byteLength":80904,"byteOffset":1186184,"byteStride":24,"target":34962},{"buffer":0,"byteLength":26968,"byteOffset":1267088,"byteStride":8,"target":34962},{"buffer":0,"byteLength":34800,"byteOffset":1294056,"byteStride":24,"target":34962},{"buffer":0,"byteLength":11600,"byteOffset":1328856,"byteStride":8,"target":34962},{"buffer":0,"byteLength":108576,"byteOffset":1340456,"byteStride":24,"target":34962},{"buffer":0,"byteLength":36192,"byteOffset":1449032,"byteStride":8,"target":34962},{"buffer":0,"byteLength":48048,"byteOffset":1485224,"byteStride":24,"target":34962},{"buffer":0,"byteLength":16016,"byteOffset":1533272,"byteStride":8,"target":34962},{"buffer":0,"byteLength":108384,"byteOffset":1549288,"byteStride":24,"target":34962},{"buffer":0,"byteLength":36128,"byteOffset":1657672,"byteStride":8,"target":34962},{"buffer":0,"byteLength":48336,"byteOffset":1693800,"byteStride":24,"target":34962},{"buffer":0,"byteLength":16112,"byteOffset":1742136,"byteStride":8,"target":34962},{"buffer":0,"byteLength":52464,"byteOffset":1758248,"byteStride":24,"target":34962},{"buffer":0,"byteLength":17488,"byteOffset":1810712,"byteStride":8,"target":34962},{"buffer":0,"byteLength":21024,"byteOffset":1828200,"byteStride":24,"target":34962},{"buffer":0,"byteLength":7008,"byteOffset":1849224,"byteStride":8,"target":34962},{"buffer":0,"byteLength":28752,"byteOffset":1856232,"byteStride":24,"target":34962},{"buffer":0,"byteLength":9584,"byteOffset":1884984,"byteStride":8,"target":34962},{"buffer":0,"byteLength":13176,"byteOffset":1894568,"byteStride":24,"target":34962},{"buffer":0,"byteLength":4392,"byteOffset":1907744,"byteStride":8,"target":34962},{"buffer":0,"byteLength":66888,"byteOffset":1912136,"byteStride":24,"target":34962},{"buffer":0,"byteLength":22296,"byteOffset":1979024,"byteStride":8,"target":34962},{"buffer":0,"byteLength":28248,"byteOffset":2001320,"byteStride":24,"target":34962},{"buffer":0,"byteLength":9416,"byteOffset":2029568,"byteStride":8,"target":34962},{"buffer":0,"byteLength":41880,"byteOffset":2038984,"byteStride":24,"target":34962},{"buffer":0,"byteLength":13960,"byteOffset":2080864,"byteStride":8,"target":34962},{"buffer":0,"byteLength":19512,"byteOffset":2094824,"byteStride":24,"target":34962},{"buffer":0,"byteLength":6504,"byteOffset":2114336,"byteStride":8,"target":34962},{"buffer":0,"byteLength":66168,"byteOffset":2120840,"byteStride":24,"target":34962},{"buffer":0,"byteLength":22056,"byteOffset":2187008,"byteStride":8,"target":34962},{"buffer":0,"byteLength":27048,"byteOffset":2209064,"byteStride":24,"target":34962},{"buffer":0,"byteLength":9016,"byteOffset":2236112,"byteStride":8,"target":34962},{"buffer":0,"byteLength":41832,"byteOffset":2245128,"byteStride":24,"target":34962},{"buffer":0,"byteLength":13944,"byteOffset":2286960,"byteStride":8,"target":34962}],"accessors":[{"bufferView":26,"componentType":5126,"count":4516,"type":"VEC3","max":[0.68645525,0.35245505,0.171812564],"min":[-0.68645525,-0.35245505,-0.167725235]},{"bufferView":26,"componentType":5126,"count":4516,"type":"VEC3","byteOffset":12},{"bufferView":27,"componentType":5126,"count":4516,"type":"VEC2"},{"bufferView":0,"componentType":5125,"count":12468,"type":"SCALAR"},{"bufferView":28,"componentType":5126,"count":2002,"type":"VEC3","max":[0.6797891,0.336640328,0.117339574],"min":[-0.6797891,-0.336640328,-0.116161264]},{"bufferView":28,"componentType":5126,"count":2002,"type":"VEC3","byteOffset":12},{"bufferView":29,"componentType":5126,"count":2002,"type":"VEC2"},{"bufferView":1,"componentType":5125,"count":5457,"type":"SCALAR"},{"bufferView":30,"componentType":5126,"count":4540,"type":"VEC3","max":[0.68645525,0.35245505,0.482009262],"min":[-0.68645525,-0.35245505,-0.167725235]},{"bufferView":30,"componentType":5126,"count":4540,"type":"VEC3","byteOffset":12},{"bufferView":31,"componentType":5126,"count":4540,"type":"VEC2"},{"bufferView":2,"componentType":5125,"count":12468,"type":"SCALAR"},{"bufferView":32,"componentType":5126,"count":2002,"type":"VEC3","max":[0.6797891,0.336640328,0.427536249],"min":[-0.6797891,-0.336640328,0.194035232]},{"bufferView":32,"componentType":5126,"count":2002,"type":"VEC3","byteOffset":12},{"bufferView":33,"componentType":5126,"count":2002,"type":"VEC2"},{"bufferView":3,"componentType":5125,"count":5457,"type":"SCALAR"},{"bufferView":34,"componentType":5126,"count":3353,"type":"VEC3","max":[0.422677279,0.35245505,0.171812654],"min":[-0.422677279,-0.35245505,-0.167725235]},{"bufferView":34,"componentType":5126,"count":3353,"type":"VEC3","byteOffset":12},{"bufferView":35,"componentType":5126,"count":3353,"type":"VEC2"},{"bufferView":4,"componentType":5125,"count":9384,"type":"SCALAR"},{"bufferView":36,"componentType":5126,"count":1406,"type":"VEC3","max":[0.416011155,0.336640328,0.117339633],"min":[-0.416011155,-0.336640328,-0.116161264]},{"bufferView":36,"componentType":5126,"count":1406,"type":"VEC3","byteOffset":12},{"bufferView":37,"componentType":5126,"count":1406,"type":"VEC2"},{"bufferView":5,"componentType":5125,"count":3981,"type":"SCALAR"},{"bufferView":38,"componentType":5126,"count":3371,"type":"VEC3","max":[0.422677279,0.4138814,0.9539937],"min":[-0.422677279,-0.35245505,0]},{"bufferView":38,"componentType":5126,"count":3371,"type":"VEC3","byteOffset":12},{"bufferView":39,"componentType":5126,"count":3371,"type":"VEC2"},{"bufferView":6,"componentType":5125,"count":9402,"type":"SCALAR"},{"bufferView":40,"componentType":5126,"count":1450,"type":"VEC3","max":[0.416011155,0.3594084,0.938179],"min":[-0.416011155,-0.3283666,0.05156398]},{"bufferView":40,"componentType":5126,"count":1450,"type":"VEC3","byteOffset":12},{"bufferView":41,"componentType":5126,"count":1450,"type":"VEC2"},{"bufferView":7,"componentType":5125,"count":3987,"type":"SCALAR"},{"bufferView":42,"componentType":5126,"count":4524,"type":"VEC3","max":[0.68645525,0.41388163,0.9539937],"min":[-0.68645525,-0.35245505,0]},{"bufferView":42,"componentType":5126,"count":4524,"type":"VEC3","byteOffset":12},{"bufferView":43,"componentType":5126,"count":4524,"type":"VEC2"},{"bufferView":8,"componentType":5125,"count":12474,"type":"SCALAR"},{"bufferView":44,"componentType":5126,"count":2002,"type":"VEC3","max":[0.6797891,0.3594086,0.9381789],"min":[-0.6797891,-0.328366667,0.05156398]},{"bufferView":44,"componentType":5126,"count":2002,"type":"VEC3","byteOffset":12},{"bufferView":45,"componentType":5126,"count":2002,"type":"VEC2"},{"bufferView":9,"componentType":5125,"count":5460,"type":"SCALAR"},{"bufferView":46,"componentType":5126,"count":4516,"type":"VEC3","max":[0.68645525,0.4138814,1.26419008],"min":[-0.68645525,-0.35245505,0]},{"bufferView":46,"componentType":5126,"count":4516,"type":"VEC3","byteOffset":12},{"bufferView":47,"componentType":5126,"count":4516,"type":"VEC2"},{"bufferView":10,"componentType":5125,"count":12306,"type":"SCALAR"},{"bufferView":48,"componentType":5126,"count":2014,"type":"VEC3","max":[0.6797891,0.359408349,1.24837542],"min":[-0.6797891,-0.328366667,0.124657571]},{"bufferView":48,"componentType":5126,"count":2014,"type":"VEC3","byteOffset":12},{"bufferView":49,"componentType":5126,"count":2014,"type":"VEC2"},{"bufferView":11,"componentType":5125,"count":5484,"type":"SCALAR"},{"bufferView":50,"componentType":5126,"count":2186,"type":"VEC3","max":[0.422677279,0.3498721,0.2490837],"min":[-0.422677279,-0.355038166,0]},{"bufferView":50,"componentType":5126,"count":2186,"type":"VEC3","byteOffset":12},{"bufferView":51,"componentType":5126,"count":2186,"type":"VEC2"},{"bufferView":12,"componentType":5125,"count":6012,"type":"SCALAR"},{"bufferView":52,"componentType":5126,"count":876,"type":"VEC3","max":[0.416011155,0.32578373,0.240825847],"min":[-0.416011155,-0.330949783,0.0515639633]},{"bufferView":52,"componentType":5126,"count":876,"type":"VEC3","byteOffset":12},{"bufferView":53,"componentType":5126,"count":876,"type":"VEC2"},{"bufferView":13,"componentType":5125,"count":2394,"type":"SCALAR"},{"bufferView":54,"componentType":5126,"count":1198,"type":"VEC3","max":[0.422677219,0.354910851,0.0904544],"min":[-0.422677338,-0.349999428,0]},{"bufferView":54,"componentType":5126,"count":1198,"type":"VEC3","byteOffset":12},{"bufferView":55,"componentType":5126,"count":1198,"type":"VEC2"},{"bufferView":14,"componentType":5125,"count":3372,"type":"SCALAR"},{"bufferView":56,"componentType":5126,"count":549,"type":"VEC3","max":[0.399301946,0.339096069,0.174264908],"min":[-0.399302065,-0.433810234,0.0544729829]},{"bufferView":56,"componentType":5126,"count":549,"type":"VEC3","byteOffset":12},{"bufferView":57,"componentType":5126,"count":549,"type":"VEC2"},{"bufferView":15,"componentType":5125,"count":1593,"type":"SCALAR"},{"bufferView":58,"componentType":5126,"count":2787,"type":"VEC3","max":[0.6864532,0.352460861,0.2490837],"min":[-0.6864574,-0.352449417,0]},{"bufferView":58,"componentType":5126,"count":2787,"type":"VEC3","byteOffset":12},{"bufferView":59,"componentType":5126,"count":2787,"type":"VEC2"},{"bufferView":16,"componentType":5125,"count":7788,"type":"SCALAR"},{"bufferView":60,"componentType":5126,"count":1177,"type":"VEC3","max":[0.67978704,0.328372478,0.240825862],"min":[-0.679791331,-0.328361034,0.0515639558]},{"bufferView":60,"componentType":5126,"count":1177,"type":"VEC3","byteOffset":12},{"bufferView":61,"componentType":5126,"count":1177,"type":"VEC2"},{"bufferView":17,"componentType":5125,"count":3258,"type":"SCALAR"},{"bufferView":62,"componentType":5126,"count":1745,"type":"VEC3","max":[0.686453462,0.3559904,0.09045446],"min":[-0.686457157,-0.348919868,0]},{"bufferView":62,"componentType":5126,"count":1745,"type":"VEC3","byteOffset":12},{"bufferView":63,"componentType":5126,"count":1745,"type":"VEC2"},{"bufferView":18,"componentType":5125,"count":4689,"type":"SCALAR"},{"bufferView":64,"componentType":5126,"count":813,"type":"VEC3","max":[0.66307795,0.340175629,0.174264848],"min":[-0.6630819,-0.432730675,0.0544729829]},{"bufferView":64,"componentType":5126,"count":813,"type":"VEC3","byteOffset":12},{"bufferView":65,"componentType":5126,"count":813,"type":"VEC2"},{"bufferView":19,"componentType":5125,"count":2196,"type":"SCALAR"},{"bufferView":66,"componentType":5126,"count":2757,"type":"VEC3","max":[0.6864548,0.3524332,0.5592802],"min":[-0.6864557,-0.352477074,0]},{"bufferView":66,"componentType":5126,"count":2757,"type":"VEC3","byteOffset":12},{"bufferView":67,"componentType":5126,"count":2757,"type":"VEC2"},{"bufferView":20,"componentType":5125,"count":7620,"type":"SCALAR"},{"bufferView":68,"componentType":5126,"count":1127,"type":"VEC3","max":[0.6797886,0.328344822,0.551022351],"min":[-0.679789543,-0.3283887,0.124657556]},{"bufferView":68,"componentType":5126,"count":1127,"type":"VEC3","byteOffset":12},{"bufferView":69,"componentType":5126,"count":1127,"type":"VEC2"},{"bufferView":21,"componentType":5125,"count":3258,"type":"SCALAR"},{"bufferView":70,"componentType":5126,"count":1743,"type":"VEC3","max":[0.6864507,0.355975628,0.09045446],"min":[-0.6864598,-0.348934174,0]},{"bufferView":70,"componentType":5126,"count":1743,"type":"VEC3","byteOffset":12},{"bufferView":71,"componentType":5126,"count":1743,"type":"VEC2"},{"bufferView":22,"componentType":5125,"count":4683,"type":"SCALAR"},{"bufferView":24,"componentType":5126,"count":824,"type":"VEC3","max":[0.6630757,0.340160847,0.174265027],"min":[-0.6630845,-0.43274498,0.0544730425]},{"bufferView":24,"componentType":5126,"count":824,"type":"VEC3","byteOffset":12},{"bufferView":25,"componentType":5126,"count":824,"type":"VEC2"},{"bufferView":23,"componentType":5125,"count":2211,"type":"SCALAR"}],"materials":[{"name":"M_Base_1","pbrMetallicRoughness":{"baseColorFactor":[0.187510908,0.187510908,0.1875129,1],"metallicFactor":0,"roughnessFactor":0.2602928},"doubleSided":true},{"name":"M_Details","pbrMetallicRoughness":{"baseColorFactor":[0.0302103832,0.0302103832,0.0302103832,1],"metallicFactor":0,"roughnessFactor":0.7392316},"doubleSided":true}],"meshes":[{"name":"FMB_Military Crates_01_02_M_Base_1_0","primitives":[{"attributes":{"POSITION":0,"NORMAL":1,"TEXCOORD_0":2},"indices":3,"material":0}]},{"name":"FMB_Military Crates_01_02_M_Details_0","primitives":[{"attributes":{"POSITION":4,"NORMAL":5,"TEXCOORD_0":6},"indices":7,"material":1}]},{"name":"FMB_Military Crates_01_03_M_Base_1_0","primitives":[{"attributes":{"POSITION":8,"NORMAL":9,"TEXCOORD_0":10},"indices":11,"material":0}]},{"name":"FMB_Military Crates_01_03_M_Details_0","primitives":[{"attributes":{"POSITION":12,"NORMAL":13,"TEXCOORD_0":14},"indices":15,"material":1}]},{"name":"FMB_Military Crates_01_01_M_Base_1_0","primitives":[{"attributes":{"POSITION":16,"NORMAL":17,"TEXCOORD_0":18},"indices":19,"material":0}]},{"name":"FMB_Military Crates_01_01_M_Details_0","primitives":[{"attributes":{"POSITION":20,"NORMAL":21,"TEXCOORD_0":22},"indices":23,"material":1}]},{"name":"FMB_Military Crates_01_01_1_M_Base_1_0","primitives":[{"attributes":{"POSITION":24,"NORMAL":25,"TEXCOORD_0":26},"indices":27,"material":0}]},{"name":"FMB_Military Crates_01_01_1_M_Details_0","primitives":[{"attributes":{"POSITION":28,"NORMAL":29,"TEXCOORD_0":30},"indices":31,"material":1}]},{"name":"FMB_Military Crates_01_02_1_M_Base_1_0","primitives":[{"attributes":{"POSITION":32,"NORMAL":33,"TEXCOORD_0":34},"indices":35,"material":0}]},{"name":"FMB_Military Crates_01_02_1_M_Details_0","primitives":[{"attributes":{"POSITION":36,"NORMAL":37,"TEXCOORD_0":38},"indices":39,"material":1}]},{"name":"FMB_Military Crates_01_03_1_M_Base_1_0","primitives":[{"attributes":{"POSITION":40,"NORMAL":41,"TEXCOORD_0":42},"indices":43,"material":0}]},{"name":"FMB_Military Crates_01_03_1_M_Details_0","primitives":[{"attributes":{"POSITION":44,"NORMAL":45,"TEXCOORD_0":46},"indices":47,"material":1}]},{"name":"FMB_Military Crates_01_01_2_M_Base_1_0","primitives":[{"attributes":{"POSITION":48,"NORMAL":49,"TEXCOORD_0":50},"indices":51,"material":0}]},{"name":"FMB_Military Crates_01_01_2_M_Details_0","primitives":[{"attributes":{"POSITION":52,"NORMAL":53,"TEXCOORD_0":54},"indices":55,"material":1}]},{"name":"FMB_Military Crates_01_01_3_M_Base_1_0","primitives":[{"attributes":{"POSITION":56,"NORMAL":57,"TEXCOORD_0":58},"indices":59,"material":0}]},{"name":"FMB_Military Crates_01_01_3_M_Details_0","primitives":[{"attributes":{"POSITION":60,"NORMAL":61,"TEXCOORD_0":62},"indices":63,"material":1}]},{"name":"FMB_Military Crates_01_02_2_M_Base_1_0","primitives":[{"attributes":{"POSITION":64,"NORMAL":65,"TEXCOORD_0":66},"indices":67,"material":0}]},{"name":"FMB_Military Crates_01_02_2_M_Details_0","primitives":[{"attributes":{"POSITION":68,"NORMAL":69,"TEXCOORD_0":70},"indices":71,"material":1}]},{"name":"FMB_Military Crates_01_02_3_M_Base_1_0","primitives":[{"attributes":{"POSITION":72,"NORMAL":73,"TEXCOORD_0":74},"indices":75,"material":0}]},{"name":"FMB_Military Crates_01_02_3_M_Details_0","primitives":[{"attributes":{"POSITION":76,"NORMAL":77,"TEXCOORD_0":78},"indices":79,"material":1}]},{"name":"FMB_Military Crates_01_03_2_M_Base_1_0","primitives":[{"attributes":{"POSITION":80,"NORMAL":81,"TEXCOORD_0":82},"indices":83,"material":0}]},{"name":"FMB_Military Crates_01_03_2_M_Details_0","primitives":[{"attributes":{"POSITION":84,"NORMAL":85,"TEXCOORD_0":86},"indices":87,"material":1}]},{"name":"FMB_Military Crates_01_03_3_M_Base_1_0","primitives":[{"attributes":{"POSITION":88,"NORMAL":89,"TEXCOORD_0":90},"indices":91,"material":0}]},{"name":"FMB_Military Crates_01_03_3_M_Details_0","primitives":[{"attributes":{"POSITION":92,"NORMAL":93,"TEXCOORD_0":94},"indices":95,"material":1}]}],"scene":0,"scenes":[{"name":"scene","nodes":[38]}]}