{"asset":{"version":"2.0","generator":"Unity 6000.3.10f1 glTFast 6.19.0"},"nodes":[{"name":"Object_4","mesh":0},{"name":"Object_5","mesh":1},{"name":"Cube_0","children":[0,1],"translation":[0.0207126737,1.174691,0.0744640157],"rotation":[0.9989545,0.0457171462,0,7.51023848E-08],"scale":[0.93350637,0.9335064,0.9335064]},{"name":"Object_7","mesh":2},{"name":"Cylinder_1","children":[3],"translation":[0,1.08014286,0],"scale":[1,1.21577573,1]},{"name":"Object_9","mesh":3},{"name":"Cylinder.002_2","children":[5],"translation":[0,0.175484121,0],"scale":[1.05415344,1.54033816,1.05415344]},{"name":"Object_11","mesh":4},{"name":"Cylinder.005_3","children":[7],"translation":[-0.8427973,0.124156967,-0.3231855],"rotation":[0,0,-0.707106769,0.7071068],"scale":[0.8159435,1.4743607,0.8159435]},{"name":"Object_13","mesh":5},{"name":"Cylinder.004_4","children":[9],"translation":[0,-1.92934918,0],"rotation":[-0.5,0.49999997,-0.5,0.50000006],"scale":[0.8159435,1.4743607,0.8159435]},{"name":"GLTF_SceneRootNode","children":[2,4,6,8,10],"rotation":[0.7071068,0,0,0.7071068]},{"name":"root","children":[11]},{"name":"Sketchfab_model","children":[12],"rotation":[0,-0.7071068,0.7071068,0]},{"name":"scene","children":[13],"translation":[0,-0.073,0],"rotation":[0,0.08715579,0,0.996194661],"scale":[0.11,0.000220000016,0.11]}],"buffers":[{"uri":"ventilator.bin","byteLength":337872}],"bufferViews":[{"buffer":0,"byteLength":14688,"target":34963},{"buffer":0,"byteLength":3360,"byteOffset":14688,"target":34963},{"buffer":0,"byteLength":6144,"byteOffset":18048,"target":34963},{"buffer":0,"byteLength":9168,"byteOffset":24192,"target":34963},{"buffer":0,"byteLength":13296,"byteOffset":33360,"target":34963},{"buffer":0,"byteLength":13296,"byteOffset":46656,"target":34963},{"buffer":0,"byteLength":55680,"byteOffset":59952,"byteStride":24,"target":34962},{"buffer":0,"byteLength":18560,"byteOffset":115632,"byteStride":8,"target":34962},{"buffer":0,"byteLength":12936,"byteOffset":134192,"byteStride":24,"target":34962},{"buffer":0,"byteLength":4312,"byteOffset":147128,"byteStride":8,"target":34962},{"buffer":0,"byteLength":18624,"byteOffset":151440,"byteStride":24,"target":34962},{"buffer":0,"byteLength":6208,"byteOffset":170064,"byteStride":8,"target":34962},{"buffer":0,"byteLength":30768,"byteOffset":176272,"byteStride":24,"target":34962},{"buffer":0,"byteLength":10256,"byteOffset":207040,"byteStride":8,"target":34962},{"buffer":0,"byteLength":45216,"byteOffset":217296,"byteStride":24,"target":34962},{"buffer":0,"byteLength":15072,"byteOffset":262512,"byteStride":8,"target":34962},{"buffer":0,"byteLength":45216,"byteOffset":277584,"byteStride":24,"target":34962},{"buffer":0,"byteLength":15072,"byteOffset":322800,"byteStride":8,"target":34962}],"accessors":[{"bufferView":6,"componentType":5126,"count":2320,"type":"VEC3","max":[7.456301,0.7762309,7.7670927],"min":[-7.602775,-0.829714239,-6.643137]},{"bufferView":6,"componentType":5126,"count":2320,"type":"VEC3","byteOffset":12},{"bufferView":7,"componentType":5126,"count":2320,"type":"VEC2"},{"bufferView":0,"componentType":5125,"count":3672,"type":"SCALAR"},{"bufferView":8,"componentType":5126,"count":539,"type":"VEC3","max":[7.30802155,0.755564153,7.62437344],"min":[-7.46004868,-0.6262936,-6.510854]},{"bufferView":8,"componentType":5126,"count":539,"type":"VEC3","byteOffset":12},{"bufferView":9,"componentType":5126,"count":539,"type":"VEC2"},{"bufferView":1,"componentType":5125,"count":840,"type":"SCALAR"},{"bufferView":10,"componentType":5126,"count":776,"type":"VEC3","max":[8.299999,1,8.299999],"min":[-8.299999,-1,-8.299999]},{"bufferView":10,"componentType":5126,"count":776,"type":"VEC3","byteOffset":12},{"bufferView":11,"componentType":5126,"count":776,"type":"VEC2"},{"bufferView":2,"componentType":5125,"count":1536,"type":"SCALAR"},{"bufferView":12,"componentType":5126,"count":1282,"type":"VEC3","max":[0.879999638,1.05754983,0.879999638],"min":[-0.879999638,0.228336662,-0.879999638]},{"bufferView":12,"componentType":5126,"count":1282,"type":"VEC3","byteOffset":12},{"bufferView":13,"componentType":5126,"count":1282,"type":"VEC2"},{"bufferView":3,"componentType":5125,"count":2292,"type":"SCALAR"},{"bufferView":14,"componentType":5126,"count":1884,"type":"VEC3","max":[0.0453730077,5.57017231,9.306553],"min":[-0.07462719,-4.4269,-8.525566]},{"bufferView":14,"componentType":5126,"count":1884,"type":"VEC3","byteOffset":12},{"bufferView":15,"componentType":5126,"count":1884,"type":"VEC2"},{"bufferView":4,"componentType":5125,"count":3324,"type":"SCALAR"},{"bufferView":16,"componentType":5126,"count":1884,"type":"VEC3","max":[-2.47135282,4.998536,8.910464],"min":[-2.59135318,-4.998536,-8.921655]},{"bufferView":16,"componentType":5126,"count":1884,"type":"VEC3","byteOffset":12},{"bufferView":17,"componentType":5126,"count":1884,"type":"VEC2"},{"bufferView":5,"componentType":5125,"count":3324,"type":"SCALAR"}],"materials":[{"name":"Material","pbrMetallicRoughness":{"baseColorFactor":[0.00232178,0.00232178,0.00232178,1],"metallicFactor":0,"roughnessFactor":0.4},"doubleSided":true},{"name":"Material.001","pbrMetallicRoughness":{},"emissiveFactor":[0.214041,1,0],"doubleSided":true},{"name":"Material.004","pbrMetallicRoughness":{"baseColorFactor":[0,0,0,1],"metallicFactor":0,"roughnessFactor":0.5},"doubleSided":true},{"name":"Material.007","pbrMetallicRoughness":{"baseColorFactor":[0.00232178,0.00232178,0.00232178,1],"metallicFactor":0,"roughnessFactor":0.4},"doubleSided":true}],"meshes":[{"name":"Object_0","primitives":[{"attributes":{"POSITION":0,"NORMAL":1,"TEXCOORD_0":2},"indices":3,"material":0}]},{"name":"Object_1","primitives":[{"attributes":{"POSITION":4,"NORMAL":5,"TEXCOORD_0":6},"indices":7,"material":1}]},{"name":"Object_2","primitives":[{"attributes":{"POSITION":8,"NORMAL":9,"TEXCOORD_0":10},"indices":11,"material":0}]},{"name":"Object_3","primitives":[{"attributes":{"POSITION":12,"NORMAL":13,"TEXCOORD_0":14},"indices":15,"material":0}]},{"name":"Object_4","primitives":[{"attributes":{"POSITION":16,"NORMAL":17,"TEXCOORD_0":18},"indices":19,"material":2}]},{"name":"Object_5","primitives":[{"attributes":{"POSITION":20,"NORMAL":21,"TEXCOORD_0":22},"indices":23,"material":3}]}],"scene":0,"scenes":[{"name":"scene","nodes":[14]}]}