{"asset":{"version":"2.0","generator":"Unity 6000.3.10f1 glTFast 6.19.0"},"nodes":[{"name":"Object_2","mesh":0},{"name":"Mineways2Skfb.obj.minecraft.cleaner.materialmerger.gles","children":[0]},{"name":"scene","children":[1],"rotation":[0.707106769,0,0,-0.7071067],"scale":[1,1.00000012,1.00000012]}],"buffers":[{"uri":"chain.bin","byteLength":608}],"bufferViews":[{"buffer":0,"byteLength":96,"target":34963},{"buffer":0,"byteLength":384,"byteOffset":96,"byteStride":24,"target":34962},{"buffer":0,"byteLength":128,"byteOffset":480,"byteStride":8,"target":34962}],"accessors":[{"bufferView":1,"componentType":5126,"count":16,"type":"VEC3","max":[0.283146,-0.216854,0.5],"min":[0.216854,-0.283146,0]},{"bufferView":1,"componentType":5126,"count":16,"type":"VEC3","byteOffset":12},{"bufferView":2,"componentType":5126,"count":16,"type":"VEC2"},{"bufferView":0,"componentType":5125,"count":24,"type":"SCALAR"}],"images":[{"name":"Chain_baseColor.png","uri":"Chain_baseColor.png","mimeType":"image/png"},{"name":"Chain_emissive.jpg","uri":"Chain_emissive.jpg","mimeType":"image/jpeg"}],"materials":[{"name":"Chain","pbrMetallicRoughness":{"metallicFactor":0,"baseColorTexture":{"index":0}},"emissiveTexture":{"index":1},"emissiveFactor":[0.1,0.1,0.1],"alphaMode":"BLEND"}],"meshes":[{"name":"Object_0","primitives":[{"attributes":{"POSITION":0,"NORMAL":1,"TEXCOORD_0":2},"indices":3,"material":0}]}],"scene":0,"scenes":[{"name":"scene","nodes":[2]}],"textures":[{"source":0},{"source":1}]}