{"asset":{"version":"2.0","generator":"Unity 6000.3.10f1 glTFast 6.19.0"},"nodes":[{"name":"Elevaotor Buttons_Brass_0","mesh":0},{"name":"Elevaotor Buttons_White Plastic.002_0","mesh":1},{"name":"Elevaotor Buttons_Metal_0","mesh":2},{"name":"Elevaotor Buttons_Button Plastic_0","mesh":3},{"name":"Elevaotor Buttons_Black Plastic_0","mesh":4},{"name":"Elevaotor Buttons_White Plastic_0","mesh":5},{"name":"Elevaotor Buttons_Metal.001_0","mesh":6},{"name":"Elevaotor Buttons_BlackMetal_0","mesh":7},{"name":"Elevaotor Buttons","children":[0,1,2,3,4,5,6,7],"rotation":[0.7071068,0,0,-0.707106769],"scale":[100,100,100]},{"name":"RootNode","children":[8]},{"name":"18d7a489d0e240e08cef0bdd92bda80a.fbx","children":[9],"rotation":[0.7071068,0,0,0.7071068],"scale":[0.01,0.01,0.01]},{"name":"scene","children":[10],"rotation":[0.707106769,4.67923969E-24,-1.13711434E-16,-0.7071067],"scale":[1,1.00000012,1.00000012]}],"buffers":[{"uri":"GUMBI.bin","byteLength":1131420}],"bufferViews":[{"buffer":0,"byteLength":5040,"target":34963},{"buffer":0,"byteLength":4056,"byteOffset":5040,"target":34963},{"buffer":0,"byteLength":13056,"byteOffset":9096,"target":34963},{"buffer":0,"byteLength":12048,"byteOffset":22152,"target":34963},{"buffer":0,"byteLength":11280,"byteOffset":34200,"target":34963},{"buffer":0,"byteLength":14208,"byteOffset":45480,"target":34963},{"buffer":0,"byteLength":49764,"byteOffset":59688,"target":34963},{"buffer":0,"byteLength":12480,"byteOffset":109452,"target":34963},{"buffer":0,"byteLength":258744,"byteOffset":121932,"byteStride":24,"target":34962},{"buffer":0,"byteLength":86248,"byteOffset":380676,"byteStride":8,"target":34962},{"buffer":0,"byteLength":33000,"byteOffset":466924,"byteStride":40,"target":34962},{"buffer":0,"byteLength":13200,"byteOffset":499924,"byteStride":16,"target":34962},{"buffer":0,"byteLength":43200,"byteOffset":513124,"byteStride":24,"target":34962},{"buffer":0,"byteLength":28800,"byteOffset":556324,"byteStride":16,"target":34962},{"buffer":0,"byteLength":57264,"byteOffset":585124,"byteStride":24,"target":34962},{"buffer":0,"byteLength":38176,"byteOffset":642388,"byteStride":16,"target":34962},{"buffer":0,"byteLength":36800,"byteOffset":680564,"byteStride":40,"target":34962},{"buffer":0,"byteLength":14720,"byteOffset":717364,"byteStride":16,"target":34962},{"buffer":0,"byteLength":85960,"byteOffset":732084,"byteStride":40,"target":34962},{"buffer":0,"byteLength":34384,"byteOffset":818044,"byteStride":16,"target":34962},{"buffer":0,"byteLength":80480,"byteOffset":852428,"byteStride":40,"target":34962},{"buffer":0,"byteLength":32192,"byteOffset":932908,"byteStride":16,"target":34962},{"buffer":0,"byteLength":118800,"byteOffset":965100,"byteStride":40,"target":34962},{"buffer":0,"byteLength":47520,"byteOffset":1083900,"byteStride":16,"target":34962}],"accessors":[{"bufferView":16,"componentType":5126,"count":920,"type":"VEC3","max":[0.0180588383,0.3012591,0.06956147],"min":[-0.0153177511,0.298398256,0.0237878561]},{"bufferView":16,"componentType":5126,"count":920,"type":"VEC3","byteOffset":12},{"bufferView":16,"componentType":5126,"count":920,"type":"VEC4","byteOffset":24},{"bufferView":17,"componentType":5126,"count":920,"type":"VEC2"},{"bufferView":17,"componentType":5126,"count":920,"type":"VEC2","byteOffset":8},{"bufferView":1,"componentType":5125,"count":1014,"type":"SCALAR"},{"bufferView":10,"componentType":5126,"count":825,"type":"VEC3","max":[0.0422645137,0.313834548,0.0181237683],"min":[0.0291583166,0.2853871,0.0175873637]},{"bufferView":10,"componentType":5126,"count":825,"type":"VEC3","byteOffset":12},{"bufferView":10,"componentType":5126,"count":825,"type":"VEC4","byteOffset":24},{"bufferView":11,"componentType":5126,"count":825,"type":"VEC2"},{"bufferView":11,"componentType":5126,"count":825,"type":"VEC2","byteOffset":8},{"bufferView":0,"componentType":5125,"count":1260,"type":"SCALAR"},{"bufferView":18,"componentType":5126,"count":2149,"type":"VEC3","max":[0.230000049,0.5000001,0.0193572454],"min":[-0.230000049,-0.5000001,4.05591E-06]},{"bufferView":18,"componentType":5126,"count":2149,"type":"VEC3","byteOffset":12},{"bufferView":18,"componentType":5126,"count":2149,"type":"VEC4","byteOffset":24},{"bufferView":19,"componentType":5126,"count":2149,"type":"VEC2"},{"bufferView":19,"componentType":5126,"count":2149,"type":"VEC2","byteOffset":8},{"bufferView":2,"componentType":5125,"count":3264,"type":"SCALAR"},{"bufferView":20,"componentType":5126,"count":2012,"type":"VEC3","max":[0.0400000624,0.0400000662,0.024693599],"min":[-0.0400000624,-0.240000054,0.0166935828]},{"bufferView":20,"componentType":5126,"count":2012,"type":"VEC3","byteOffset":12},{"bufferView":20,"componentType":5126,"count":2012,"type":"VEC4","byteOffset":24},{"bufferView":21,"componentType":5126,"count":2012,"type":"VEC2"},{"bufferView":21,"componentType":5126,"count":2012,"type":"VEC2","byteOffset":8},{"bufferView":3,"componentType":5125,"count":3012,"type":"SCALAR"},{"bufferView":12,"componentType":5126,"count":1800,"type":"VEC3","max":[0.05000008,0.350000083,0.0180040766],"min":[-0.05000008,-0.350000083,4.051253E-06]},{"bufferView":12,"componentType":5126,"count":1800,"type":"VEC3","byteOffset":12},{"bufferView":13,"componentType":5126,"count":1800,"type":"VEC2"},{"bufferView":13,"componentType":5126,"count":1800,"type":"VEC2","byteOffset":8},{"bufferView":4,"componentType":5125,"count":2820,"type":"SCALAR"},{"bufferView":14,"componentType":5126,"count":2386,"type":"VEC3","max":[0.039546892,0.342241734,0.0195040666],"min":[-0.039546892,-0.339561254,0.0145040564]},{"bufferView":14,"componentType":5126,"count":2386,"type":"VEC3","byteOffset":12},{"bufferView":15,"componentType":5126,"count":2386,"type":"VEC2"},{"bufferView":15,"componentType":5126,"count":2386,"type":"VEC2","byteOffset":8},{"bufferView":5,"componentType":5125,"count":3552,"type":"SCALAR"},{"bufferView":8,"componentType":5126,"count":10781,"type":"VEC3","max":[0.0255924147,0.325576335,0.023787858],"min":[-0.025902899,-0.44549337,0.00258977525]},{"bufferView":8,"componentType":5126,"count":10781,"type":"VEC3","byteOffset":12},{"bufferView":9,"componentType":5126,"count":10781,"type":"VEC2"},{"bufferView":6,"componentType":5125,"count":12441,"type":"SCALAR"},{"bufferView":22,"componentType":5126,"count":2970,"type":"VEC3","max":[0.0274793543,0.327483565,0.0218806267],"min":[-0.0277898349,0.2721738,0.003927948]},{"bufferView":22,"componentType":5126,"count":2970,"type":"VEC3","byteOffset":12},{"bufferView":22,"componentType":5126,"count":2970,"type":"VEC4","byteOffset":24},{"bufferView":23,"componentType":5126,"count":2970,"type":"VEC2"},{"bufferView":23,"componentType":5126,"count":2970,"type":"VEC2","byteOffset":8},{"bufferView":7,"componentType":5125,"count":3120,"type":"SCALAR"}],"images":[{"name":"Brass_baseColor.jpg","uri":"Brass_baseColor.jpg","mimeType":"image/jpeg"},{"name":"Brass_normal.png","uri":"Brass_normal.png","mimeType":"image/png"},{"name":"White_Plastic.002_normal.png","uri":"White_Plastic.002_normal.png","mimeType":"image/png"},{"name":"Metal_baseColor.jpg","uri":"Metal_baseColor.jpg","mimeType":"image/jpeg"},{"name":"Metal_metallicRoughness.jpg","uri":"Metal_metallicRoughness.jpg","mimeType":"image/jpeg"},{"name":"Metal_normal.png","uri":"Metal_normal.png","mimeType":"image/png"},{"name":"Black_Plastic_baseColor.jpg","uri":"Black_Plastic_baseColor.jpg","mimeType":"image/jpeg"}],"materials":[{"name":"Brass","pbrMetallicRoughness":{"baseColorTexture":{"index":0}},"normalTexture":{"index":1},"doubleSided":true},{"name":"White_Plastic.002","pbrMetallicRoughness":{"baseColorFactor":[0.8,0.8,0.8,1],"metallicFactor":0,"roughnessFactor":0.82111454},"normalTexture":{"index":2},"doubleSided":true},{"name":"Metal","pbrMetallicRoughness":{"baseColorTexture":{"index":3},"metallicRoughnessTexture":{"index":4}},"normalTexture":{"index":5},"doubleSided":true},{"name":"Button_Plastic","pbrMetallicRoughness":{"baseColorFactor":[1,0.911765039,0.911765039,1],"metallicFactor":0,"roughnessFactor":0.7919286},"normalTexture":{"index":2},"emissiveFactor":[0.6,0.5718174,0.4286802],"doubleSided":true},{"name":"Black_Plastic","pbrMetallicRoughness":{"metallicFactor":0,"roughnessFactor":0.82111454,"baseColorTexture":{"index":6}},"doubleSided":true},{"name":"White_Plastic","pbrMetallicRoughness":{"baseColorFactor":[0.8,0.8,0.8,1],"metallicFactor":0,"roughnessFactor":0.82111454},"doubleSided":true},{"name":"Metal.001","pbrMetallicRoughness":{"baseColorFactor":[0.257305741,0.257305741,0.257305741,1],"roughnessFactor":0.24598752},"doubleSided":true},{"name":"BlackMetal","pbrMetallicRoughness":{"metallicFactor":0,"roughnessFactor":0.82111454,"baseColorTexture":{"index":3}},"normalTexture":{"index":5},"doubleSided":true}],"meshes":[{"name":"Elevaotor Buttons_Brass_0","primitives":[{"attributes":{"POSITION":0,"NORMAL":1,"TANGENT":2,"TEXCOORD_0":3,"TEXCOORD_1":4},"indices":5,"material":0}]},{"name":"Elevaotor Buttons_White Plastic.002_0","primitives":[{"attributes":{"POSITION":6,"NORMAL":7,"TANGENT":8,"TEXCOORD_0":9,"TEXCOORD_1":10},"indices":11,"material":1}]},{"name":"Elevaotor Buttons_Metal_0","primitives":[{"attributes":{"POSITION":12,"NORMAL":13,"TANGENT":14,"TEXCOORD_0":15,"TEXCOORD_1":16},"indices":17,"material":2}]},{"name":"Elevaotor Buttons_Button Plastic_0","primitives":[{"attributes":{"POSITION":18,"NORMAL":19,"TANGENT":20,"TEXCOORD_0":21,"TEXCOORD_1":22},"indices":23,"material":3}]},{"name":"Elevaotor Buttons_Black Plastic_0","primitives":[{"attributes":{"POSITION":24,"NORMAL":25,"TEXCOORD_0":26,"TEXCOORD_1":27},"indices":28,"material":4}]},{"name":"Elevaotor Buttons_White Plastic_0","primitives":[{"attributes":{"POSITION":29,"NORMAL":30,"TEXCOORD_0":31,"TEXCOORD_1":32},"indices":33,"material":5}]},{"name":"Elevaotor Buttons_Metal.001_0","primitives":[{"attributes":{"POSITION":34,"NORMAL":35,"TEXCOORD_0":36},"indices":37,"material":6}]},{"name":"Elevaotor Buttons_BlackMetal_0","primitives":[{"attributes":{"POSITION":38,"NORMAL":39,"TANGENT":40,"TEXCOORD_0":41,"TEXCOORD_1":42},"indices":43,"material":7}]}],"scene":0,"scenes":[{"name":"scene","nodes":[11]}],"textures":[{"source":0},{"source":1},{"source":2},{"source":3},{"source":4},{"source":5},{"source":6}]}